<mxfile host="app.diagrams.net" modified="2023-04-07T11:29:33.592Z" agent="Mozilla/5.0 (Windows NT 10.0; Win64; x64) AppleWebKit/537.36 (KHTML, like Gecko) Chrome/111.0.0.0 Safari/537.36" etag="KOvlar7lO2RkHdYHR_f-" version="21.1.5" type="github">
  <diagram name="Page-1" id="uE5ZQeTWL7Vh_dwl6K6P">
    <mxGraphModel dx="2612" dy="711" grid="1" gridSize="10" guides="1" tooltips="1" connect="1" arrows="1" fold="1" page="1" pageScale="1" pageWidth="850" pageHeight="1100" math="0" shadow="0">
      <root>
        <mxCell id="0" />
        <mxCell id="1" parent="0" />
        <mxCell id="ue5pnEDHFhkIbqX5kC11-204" value="" style="group" vertex="1" connectable="0" parent="1">
          <mxGeometry x="-120" y="20" width="1560" height="200" as="geometry" />
        </mxCell>
        <mxCell id="ue5pnEDHFhkIbqX5kC11-25" value="" style="group;fontSize=24;" vertex="1" connectable="0" parent="ue5pnEDHFhkIbqX5kC11-204">
          <mxGeometry x="900" width="160" height="40" as="geometry" />
        </mxCell>
        <mxCell id="ue5pnEDHFhkIbqX5kC11-4" value="" style="rounded=0;whiteSpace=wrap;html=1;fontSize=24;" vertex="1" parent="ue5pnEDHFhkIbqX5kC11-25">
          <mxGeometry width="160" height="40" as="geometry" />
        </mxCell>
        <mxCell id="ue5pnEDHFhkIbqX5kC11-18" style="edgeStyle=orthogonalEdgeStyle;rounded=0;orthogonalLoop=1;jettySize=auto;html=1;exitX=0.5;exitY=1;exitDx=0;exitDy=0;fontSize=24;" edge="1" parent="ue5pnEDHFhkIbqX5kC11-25" source="ue5pnEDHFhkIbqX5kC11-4" target="ue5pnEDHFhkIbqX5kC11-4">
          <mxGeometry relative="1" as="geometry" />
        </mxCell>
        <mxCell id="ue5pnEDHFhkIbqX5kC11-21" value="" style="rounded=0;whiteSpace=wrap;html=1;fontSize=24;" vertex="1" parent="ue5pnEDHFhkIbqX5kC11-25">
          <mxGeometry x="120" width="40" height="40" as="geometry" />
        </mxCell>
        <mxCell id="ue5pnEDHFhkIbqX5kC11-22" value="" style="rounded=0;whiteSpace=wrap;html=1;fontSize=24;" vertex="1" parent="ue5pnEDHFhkIbqX5kC11-25">
          <mxGeometry x="80" width="40" height="40" as="geometry" />
        </mxCell>
        <mxCell id="ue5pnEDHFhkIbqX5kC11-23" value="" style="rounded=0;whiteSpace=wrap;html=1;fontSize=24;" vertex="1" parent="ue5pnEDHFhkIbqX5kC11-25">
          <mxGeometry x="40" width="40" height="40" as="geometry" />
        </mxCell>
        <mxCell id="ue5pnEDHFhkIbqX5kC11-24" value="43" style="rounded=0;whiteSpace=wrap;html=1;fontSize=24;" vertex="1" parent="ue5pnEDHFhkIbqX5kC11-25">
          <mxGeometry width="40" height="40" as="geometry" />
        </mxCell>
        <mxCell id="ue5pnEDHFhkIbqX5kC11-26" value="" style="group;fontSize=24;" vertex="1" connectable="0" parent="ue5pnEDHFhkIbqX5kC11-204">
          <mxGeometry x="1200" y="80" width="160" height="40" as="geometry" />
        </mxCell>
        <mxCell id="ue5pnEDHFhkIbqX5kC11-27" value="" style="rounded=0;whiteSpace=wrap;html=1;fontSize=24;" vertex="1" parent="ue5pnEDHFhkIbqX5kC11-26">
          <mxGeometry width="160" height="40" as="geometry" />
        </mxCell>
        <mxCell id="ue5pnEDHFhkIbqX5kC11-28" style="edgeStyle=orthogonalEdgeStyle;rounded=0;orthogonalLoop=1;jettySize=auto;html=1;exitX=0.5;exitY=1;exitDx=0;exitDy=0;fontSize=24;" edge="1" parent="ue5pnEDHFhkIbqX5kC11-26" source="ue5pnEDHFhkIbqX5kC11-27" target="ue5pnEDHFhkIbqX5kC11-27">
          <mxGeometry relative="1" as="geometry" />
        </mxCell>
        <mxCell id="ue5pnEDHFhkIbqX5kC11-29" value="" style="rounded=0;whiteSpace=wrap;html=1;fontSize=24;" vertex="1" parent="ue5pnEDHFhkIbqX5kC11-26">
          <mxGeometry x="120" width="40" height="40" as="geometry" />
        </mxCell>
        <mxCell id="ue5pnEDHFhkIbqX5kC11-30" value="" style="rounded=0;whiteSpace=wrap;html=1;fontSize=24;" vertex="1" parent="ue5pnEDHFhkIbqX5kC11-26">
          <mxGeometry x="80" width="40" height="40" as="geometry" />
        </mxCell>
        <mxCell id="ue5pnEDHFhkIbqX5kC11-31" value="70" style="rounded=0;whiteSpace=wrap;html=1;fontSize=24;" vertex="1" parent="ue5pnEDHFhkIbqX5kC11-26">
          <mxGeometry x="40" width="40" height="40" as="geometry" />
        </mxCell>
        <mxCell id="ue5pnEDHFhkIbqX5kC11-32" value="56" style="rounded=0;whiteSpace=wrap;html=1;fontSize=24;" vertex="1" parent="ue5pnEDHFhkIbqX5kC11-26">
          <mxGeometry width="40" height="40" as="geometry" />
        </mxCell>
        <mxCell id="ue5pnEDHFhkIbqX5kC11-33" value="" style="group;fontSize=24;" vertex="1" connectable="0" parent="ue5pnEDHFhkIbqX5kC11-204">
          <mxGeometry x="400" y="80" width="160" height="40" as="geometry" />
        </mxCell>
        <mxCell id="ue5pnEDHFhkIbqX5kC11-34" value="" style="rounded=0;whiteSpace=wrap;html=1;fontSize=24;" vertex="1" parent="ue5pnEDHFhkIbqX5kC11-33">
          <mxGeometry width="160" height="40" as="geometry" />
        </mxCell>
        <mxCell id="ue5pnEDHFhkIbqX5kC11-35" style="edgeStyle=orthogonalEdgeStyle;rounded=0;orthogonalLoop=1;jettySize=auto;html=1;exitX=0.5;exitY=1;exitDx=0;exitDy=0;fontSize=24;" edge="1" parent="ue5pnEDHFhkIbqX5kC11-33" source="ue5pnEDHFhkIbqX5kC11-34" target="ue5pnEDHFhkIbqX5kC11-34">
          <mxGeometry relative="1" as="geometry" />
        </mxCell>
        <mxCell id="ue5pnEDHFhkIbqX5kC11-36" value="" style="rounded=0;whiteSpace=wrap;html=1;fontSize=24;" vertex="1" parent="ue5pnEDHFhkIbqX5kC11-33">
          <mxGeometry x="120" width="40" height="40" as="geometry" />
        </mxCell>
        <mxCell id="ue5pnEDHFhkIbqX5kC11-37" value="17" style="rounded=0;whiteSpace=wrap;html=1;fontSize=24;" vertex="1" parent="ue5pnEDHFhkIbqX5kC11-33">
          <mxGeometry x="80" width="40" height="40" as="geometry" />
        </mxCell>
        <mxCell id="ue5pnEDHFhkIbqX5kC11-38" value="10" style="rounded=0;whiteSpace=wrap;html=1;fontSize=24;" vertex="1" parent="ue5pnEDHFhkIbqX5kC11-33">
          <mxGeometry x="40" width="40" height="40" as="geometry" />
        </mxCell>
        <mxCell id="ue5pnEDHFhkIbqX5kC11-39" value="6" style="rounded=0;whiteSpace=wrap;html=1;fontSize=24;" vertex="1" parent="ue5pnEDHFhkIbqX5kC11-33">
          <mxGeometry width="40" height="40" as="geometry" />
        </mxCell>
        <mxCell id="ue5pnEDHFhkIbqX5kC11-40" value="" style="group;fontSize=24;" vertex="1" connectable="0" parent="ue5pnEDHFhkIbqX5kC11-204">
          <mxGeometry x="600" y="160" width="160" height="40" as="geometry" />
        </mxCell>
        <mxCell id="ue5pnEDHFhkIbqX5kC11-41" value="" style="rounded=0;whiteSpace=wrap;html=1;fontSize=24;" vertex="1" parent="ue5pnEDHFhkIbqX5kC11-40">
          <mxGeometry width="160" height="40" as="geometry" />
        </mxCell>
        <mxCell id="ue5pnEDHFhkIbqX5kC11-42" style="edgeStyle=orthogonalEdgeStyle;rounded=0;orthogonalLoop=1;jettySize=auto;html=1;exitX=0.5;exitY=1;exitDx=0;exitDy=0;fontSize=24;" edge="1" parent="ue5pnEDHFhkIbqX5kC11-40" source="ue5pnEDHFhkIbqX5kC11-41" target="ue5pnEDHFhkIbqX5kC11-41">
          <mxGeometry relative="1" as="geometry" />
        </mxCell>
        <mxCell id="ue5pnEDHFhkIbqX5kC11-43" value="" style="rounded=0;whiteSpace=wrap;html=1;fontSize=24;" vertex="1" parent="ue5pnEDHFhkIbqX5kC11-40">
          <mxGeometry x="120" width="40" height="40" as="geometry" />
        </mxCell>
        <mxCell id="ue5pnEDHFhkIbqX5kC11-44" value="19" style="rounded=0;whiteSpace=wrap;html=1;fontSize=24;" vertex="1" parent="ue5pnEDHFhkIbqX5kC11-40">
          <mxGeometry x="80" width="40" height="40" as="geometry" />
        </mxCell>
        <mxCell id="ue5pnEDHFhkIbqX5kC11-45" value="18" style="rounded=0;whiteSpace=wrap;html=1;fontSize=24;" vertex="1" parent="ue5pnEDHFhkIbqX5kC11-40">
          <mxGeometry x="40" width="40" height="40" as="geometry" />
        </mxCell>
        <mxCell id="ue5pnEDHFhkIbqX5kC11-46" value="17" style="rounded=0;whiteSpace=wrap;html=1;fontSize=24;" vertex="1" parent="ue5pnEDHFhkIbqX5kC11-40">
          <mxGeometry width="40" height="40" as="geometry" />
        </mxCell>
        <mxCell id="ue5pnEDHFhkIbqX5kC11-47" value="" style="group;fontSize=24;" vertex="1" connectable="0" parent="ue5pnEDHFhkIbqX5kC11-204">
          <mxGeometry x="400" y="160" width="160" height="40" as="geometry" />
        </mxCell>
        <mxCell id="ue5pnEDHFhkIbqX5kC11-48" value="" style="rounded=0;whiteSpace=wrap;html=1;fontSize=24;" vertex="1" parent="ue5pnEDHFhkIbqX5kC11-47">
          <mxGeometry width="160" height="40" as="geometry" />
        </mxCell>
        <mxCell id="ue5pnEDHFhkIbqX5kC11-49" style="edgeStyle=orthogonalEdgeStyle;rounded=0;orthogonalLoop=1;jettySize=auto;html=1;exitX=0.5;exitY=1;exitDx=0;exitDy=0;fontSize=24;" edge="1" parent="ue5pnEDHFhkIbqX5kC11-47" source="ue5pnEDHFhkIbqX5kC11-48" target="ue5pnEDHFhkIbqX5kC11-48">
          <mxGeometry relative="1" as="geometry" />
        </mxCell>
        <mxCell id="ue5pnEDHFhkIbqX5kC11-50" value="" style="rounded=0;whiteSpace=wrap;html=1;fontSize=24;" vertex="1" parent="ue5pnEDHFhkIbqX5kC11-47">
          <mxGeometry x="120" width="40" height="40" as="geometry" />
        </mxCell>
        <mxCell id="ue5pnEDHFhkIbqX5kC11-51" value="" style="rounded=0;whiteSpace=wrap;html=1;fontSize=24;" vertex="1" parent="ue5pnEDHFhkIbqX5kC11-47">
          <mxGeometry x="80" width="40" height="40" as="geometry" />
        </mxCell>
        <mxCell id="ue5pnEDHFhkIbqX5kC11-52" value="13" style="rounded=0;whiteSpace=wrap;html=1;fontSize=24;" vertex="1" parent="ue5pnEDHFhkIbqX5kC11-47">
          <mxGeometry x="40" width="40" height="40" as="geometry" />
        </mxCell>
        <mxCell id="ue5pnEDHFhkIbqX5kC11-53" value="10" style="rounded=0;whiteSpace=wrap;html=1;fontSize=24;" vertex="1" parent="ue5pnEDHFhkIbqX5kC11-47">
          <mxGeometry width="40" height="40" as="geometry" />
        </mxCell>
        <mxCell id="ue5pnEDHFhkIbqX5kC11-54" value="" style="group;fontSize=24;" vertex="1" connectable="0" parent="ue5pnEDHFhkIbqX5kC11-204">
          <mxGeometry x="200" y="160" width="160" height="40" as="geometry" />
        </mxCell>
        <mxCell id="ue5pnEDHFhkIbqX5kC11-55" value="" style="rounded=0;whiteSpace=wrap;html=1;fontSize=24;" vertex="1" parent="ue5pnEDHFhkIbqX5kC11-54">
          <mxGeometry width="160" height="40" as="geometry" />
        </mxCell>
        <mxCell id="ue5pnEDHFhkIbqX5kC11-56" style="edgeStyle=orthogonalEdgeStyle;rounded=0;orthogonalLoop=1;jettySize=auto;html=1;exitX=0.5;exitY=1;exitDx=0;exitDy=0;fontSize=24;" edge="1" parent="ue5pnEDHFhkIbqX5kC11-54" source="ue5pnEDHFhkIbqX5kC11-55" target="ue5pnEDHFhkIbqX5kC11-55">
          <mxGeometry relative="1" as="geometry" />
        </mxCell>
        <mxCell id="ue5pnEDHFhkIbqX5kC11-57" value="" style="rounded=0;whiteSpace=wrap;html=1;fontSize=24;" vertex="1" parent="ue5pnEDHFhkIbqX5kC11-54">
          <mxGeometry x="120" width="40" height="40" as="geometry" />
        </mxCell>
        <mxCell id="ue5pnEDHFhkIbqX5kC11-58" value="9" style="rounded=0;whiteSpace=wrap;html=1;fontSize=24;" vertex="1" parent="ue5pnEDHFhkIbqX5kC11-54">
          <mxGeometry x="80" width="40" height="40" as="geometry" />
        </mxCell>
        <mxCell id="ue5pnEDHFhkIbqX5kC11-59" value="8" style="rounded=0;whiteSpace=wrap;html=1;fontSize=24;" vertex="1" parent="ue5pnEDHFhkIbqX5kC11-54">
          <mxGeometry x="40" width="40" height="40" as="geometry" />
        </mxCell>
        <mxCell id="ue5pnEDHFhkIbqX5kC11-60" value="6" style="rounded=0;whiteSpace=wrap;html=1;fontSize=24;" vertex="1" parent="ue5pnEDHFhkIbqX5kC11-54">
          <mxGeometry width="40" height="40" as="geometry" />
        </mxCell>
        <mxCell id="ue5pnEDHFhkIbqX5kC11-61" value="" style="group;fontSize=24;" vertex="1" connectable="0" parent="ue5pnEDHFhkIbqX5kC11-204">
          <mxGeometry y="160" width="160" height="40" as="geometry" />
        </mxCell>
        <mxCell id="ue5pnEDHFhkIbqX5kC11-62" value="" style="rounded=0;whiteSpace=wrap;html=1;fontSize=24;" vertex="1" parent="ue5pnEDHFhkIbqX5kC11-61">
          <mxGeometry width="160" height="40" as="geometry" />
        </mxCell>
        <mxCell id="ue5pnEDHFhkIbqX5kC11-63" style="edgeStyle=orthogonalEdgeStyle;rounded=0;orthogonalLoop=1;jettySize=auto;html=1;exitX=0.5;exitY=1;exitDx=0;exitDy=0;fontSize=24;" edge="1" parent="ue5pnEDHFhkIbqX5kC11-61" source="ue5pnEDHFhkIbqX5kC11-62" target="ue5pnEDHFhkIbqX5kC11-62">
          <mxGeometry relative="1" as="geometry" />
        </mxCell>
        <mxCell id="ue5pnEDHFhkIbqX5kC11-64" value="" style="rounded=0;whiteSpace=wrap;html=1;fontSize=24;" vertex="1" parent="ue5pnEDHFhkIbqX5kC11-61">
          <mxGeometry x="120" width="40" height="40" as="geometry" />
        </mxCell>
        <mxCell id="ue5pnEDHFhkIbqX5kC11-65" value="" style="rounded=0;whiteSpace=wrap;html=1;fontSize=24;" vertex="1" parent="ue5pnEDHFhkIbqX5kC11-61">
          <mxGeometry x="80" width="40" height="40" as="geometry" />
        </mxCell>
        <mxCell id="ue5pnEDHFhkIbqX5kC11-66" value="5" style="rounded=0;whiteSpace=wrap;html=1;fontSize=24;" vertex="1" parent="ue5pnEDHFhkIbqX5kC11-61">
          <mxGeometry x="40" width="40" height="40" as="geometry" />
        </mxCell>
        <mxCell id="ue5pnEDHFhkIbqX5kC11-67" value="2" style="rounded=0;whiteSpace=wrap;html=1;fontSize=24;" vertex="1" parent="ue5pnEDHFhkIbqX5kC11-61">
          <mxGeometry width="40" height="40" as="geometry" />
        </mxCell>
        <mxCell id="ue5pnEDHFhkIbqX5kC11-75" value="" style="group;fontSize=24;" vertex="1" connectable="0" parent="ue5pnEDHFhkIbqX5kC11-204">
          <mxGeometry x="1200" y="160" width="160" height="40" as="geometry" />
        </mxCell>
        <mxCell id="ue5pnEDHFhkIbqX5kC11-76" value="" style="rounded=0;whiteSpace=wrap;html=1;fontSize=24;" vertex="1" parent="ue5pnEDHFhkIbqX5kC11-75">
          <mxGeometry width="160" height="40" as="geometry" />
        </mxCell>
        <mxCell id="ue5pnEDHFhkIbqX5kC11-77" style="edgeStyle=orthogonalEdgeStyle;rounded=0;orthogonalLoop=1;jettySize=auto;html=1;exitX=0.5;exitY=1;exitDx=0;exitDy=0;fontSize=24;" edge="1" parent="ue5pnEDHFhkIbqX5kC11-75" source="ue5pnEDHFhkIbqX5kC11-76" target="ue5pnEDHFhkIbqX5kC11-76">
          <mxGeometry relative="1" as="geometry" />
        </mxCell>
        <mxCell id="ue5pnEDHFhkIbqX5kC11-78" value="" style="rounded=0;whiteSpace=wrap;html=1;fontSize=24;" vertex="1" parent="ue5pnEDHFhkIbqX5kC11-75">
          <mxGeometry x="120" width="40" height="40" as="geometry" />
        </mxCell>
        <mxCell id="ue5pnEDHFhkIbqX5kC11-79" value="58" style="rounded=0;whiteSpace=wrap;html=1;fontSize=24;" vertex="1" parent="ue5pnEDHFhkIbqX5kC11-75">
          <mxGeometry x="80" width="40" height="40" as="geometry" />
        </mxCell>
        <mxCell id="ue5pnEDHFhkIbqX5kC11-80" value="56" style="rounded=0;whiteSpace=wrap;html=1;fontSize=24;" vertex="1" parent="ue5pnEDHFhkIbqX5kC11-75">
          <mxGeometry x="40" width="40" height="40" as="geometry" />
        </mxCell>
        <mxCell id="ue5pnEDHFhkIbqX5kC11-81" value="44" style="rounded=0;whiteSpace=wrap;html=1;fontSize=24;" vertex="1" parent="ue5pnEDHFhkIbqX5kC11-75">
          <mxGeometry width="40" height="40" as="geometry" />
        </mxCell>
        <mxCell id="ue5pnEDHFhkIbqX5kC11-82" value="" style="group;fontSize=24;" vertex="1" connectable="0" parent="ue5pnEDHFhkIbqX5kC11-204">
          <mxGeometry x="1000" y="160" width="160" height="40" as="geometry" />
        </mxCell>
        <mxCell id="ue5pnEDHFhkIbqX5kC11-83" value="" style="rounded=0;whiteSpace=wrap;html=1;fontSize=24;" vertex="1" parent="ue5pnEDHFhkIbqX5kC11-82">
          <mxGeometry width="160" height="40" as="geometry" />
        </mxCell>
        <mxCell id="ue5pnEDHFhkIbqX5kC11-84" style="edgeStyle=orthogonalEdgeStyle;rounded=0;orthogonalLoop=1;jettySize=auto;html=1;exitX=0.5;exitY=1;exitDx=0;exitDy=0;fontSize=24;" edge="1" parent="ue5pnEDHFhkIbqX5kC11-82" source="ue5pnEDHFhkIbqX5kC11-83" target="ue5pnEDHFhkIbqX5kC11-83">
          <mxGeometry relative="1" as="geometry" />
        </mxCell>
        <mxCell id="ue5pnEDHFhkIbqX5kC11-85" value="" style="rounded=0;whiteSpace=wrap;html=1;fontSize=24;" vertex="1" parent="ue5pnEDHFhkIbqX5kC11-82">
          <mxGeometry x="120" width="40" height="40" as="geometry" />
        </mxCell>
        <mxCell id="ue5pnEDHFhkIbqX5kC11-86" value="" style="rounded=0;whiteSpace=wrap;html=1;fontSize=24;" vertex="1" parent="ue5pnEDHFhkIbqX5kC11-82">
          <mxGeometry x="80" width="40" height="40" as="geometry" />
        </mxCell>
        <mxCell id="ue5pnEDHFhkIbqX5kC11-87" value="44" style="rounded=0;whiteSpace=wrap;html=1;fontSize=24;" vertex="1" parent="ue5pnEDHFhkIbqX5kC11-82">
          <mxGeometry x="40" width="40" height="40" as="geometry" />
        </mxCell>
        <mxCell id="ue5pnEDHFhkIbqX5kC11-88" value="43" style="rounded=0;whiteSpace=wrap;html=1;fontSize=24;" vertex="1" parent="ue5pnEDHFhkIbqX5kC11-82">
          <mxGeometry width="40" height="40" as="geometry" />
        </mxCell>
        <mxCell id="ue5pnEDHFhkIbqX5kC11-89" value="" style="group;fontSize=24;" vertex="1" connectable="0" parent="ue5pnEDHFhkIbqX5kC11-204">
          <mxGeometry x="1400" y="160" width="160" height="40" as="geometry" />
        </mxCell>
        <mxCell id="ue5pnEDHFhkIbqX5kC11-90" value="" style="rounded=0;whiteSpace=wrap;html=1;fontSize=24;" vertex="1" parent="ue5pnEDHFhkIbqX5kC11-89">
          <mxGeometry width="160" height="40" as="geometry" />
        </mxCell>
        <mxCell id="ue5pnEDHFhkIbqX5kC11-91" style="edgeStyle=orthogonalEdgeStyle;rounded=0;orthogonalLoop=1;jettySize=auto;html=1;exitX=0.5;exitY=1;exitDx=0;exitDy=0;fontSize=24;" edge="1" parent="ue5pnEDHFhkIbqX5kC11-89" source="ue5pnEDHFhkIbqX5kC11-90" target="ue5pnEDHFhkIbqX5kC11-90">
          <mxGeometry relative="1" as="geometry" />
        </mxCell>
        <mxCell id="ue5pnEDHFhkIbqX5kC11-92" value="" style="rounded=0;whiteSpace=wrap;html=1;fontSize=24;" vertex="1" parent="ue5pnEDHFhkIbqX5kC11-89">
          <mxGeometry x="120" width="40" height="40" as="geometry" />
        </mxCell>
        <mxCell id="ue5pnEDHFhkIbqX5kC11-93" value="" style="rounded=0;whiteSpace=wrap;html=1;fontSize=24;" vertex="1" parent="ue5pnEDHFhkIbqX5kC11-89">
          <mxGeometry x="80" width="40" height="40" as="geometry" />
        </mxCell>
        <mxCell id="ue5pnEDHFhkIbqX5kC11-94" value="73" style="rounded=0;whiteSpace=wrap;html=1;fontSize=24;" vertex="1" parent="ue5pnEDHFhkIbqX5kC11-89">
          <mxGeometry x="40" width="40" height="40" as="geometry" />
        </mxCell>
        <mxCell id="ue5pnEDHFhkIbqX5kC11-95" value="70" style="rounded=0;whiteSpace=wrap;html=1;fontSize=24;" vertex="1" parent="ue5pnEDHFhkIbqX5kC11-89">
          <mxGeometry width="40" height="40" as="geometry" />
        </mxCell>
        <mxCell id="ue5pnEDHFhkIbqX5kC11-112" style="rounded=0;orthogonalLoop=1;jettySize=auto;html=1;exitX=0;exitY=1;exitDx=0;exitDy=0;entryX=0;entryY=0;entryDx=0;entryDy=0;" edge="1" parent="ue5pnEDHFhkIbqX5kC11-204" source="ue5pnEDHFhkIbqX5kC11-24" target="ue5pnEDHFhkIbqX5kC11-37">
          <mxGeometry relative="1" as="geometry" />
        </mxCell>
        <mxCell id="ue5pnEDHFhkIbqX5kC11-113" style="rounded=0;orthogonalLoop=1;jettySize=auto;html=1;exitX=1;exitY=1;exitDx=0;exitDy=0;entryX=1;entryY=0;entryDx=0;entryDy=0;" edge="1" parent="ue5pnEDHFhkIbqX5kC11-204" source="ue5pnEDHFhkIbqX5kC11-24" target="ue5pnEDHFhkIbqX5kC11-31">
          <mxGeometry relative="1" as="geometry" />
        </mxCell>
        <mxCell id="ue5pnEDHFhkIbqX5kC11-114" style="rounded=0;orthogonalLoop=1;jettySize=auto;html=1;exitX=0;exitY=1;exitDx=0;exitDy=0;entryX=0;entryY=0;entryDx=0;entryDy=0;" edge="1" parent="ue5pnEDHFhkIbqX5kC11-204" source="ue5pnEDHFhkIbqX5kC11-39" target="ue5pnEDHFhkIbqX5kC11-65">
          <mxGeometry relative="1" as="geometry" />
        </mxCell>
        <mxCell id="ue5pnEDHFhkIbqX5kC11-118" style="rounded=0;orthogonalLoop=1;jettySize=auto;html=1;exitX=1;exitY=1;exitDx=0;exitDy=0;entryX=1;entryY=0;entryDx=0;entryDy=0;" edge="1" parent="ue5pnEDHFhkIbqX5kC11-204" source="ue5pnEDHFhkIbqX5kC11-39" target="ue5pnEDHFhkIbqX5kC11-59">
          <mxGeometry relative="1" as="geometry" />
        </mxCell>
        <mxCell id="ue5pnEDHFhkIbqX5kC11-119" style="rounded=0;orthogonalLoop=1;jettySize=auto;html=1;exitX=1;exitY=1;exitDx=0;exitDy=0;entryX=1;entryY=0;entryDx=0;entryDy=0;" edge="1" parent="ue5pnEDHFhkIbqX5kC11-204" source="ue5pnEDHFhkIbqX5kC11-38" target="ue5pnEDHFhkIbqX5kC11-52">
          <mxGeometry relative="1" as="geometry" />
        </mxCell>
        <mxCell id="ue5pnEDHFhkIbqX5kC11-120" style="rounded=0;orthogonalLoop=1;jettySize=auto;html=1;exitX=1;exitY=1;exitDx=0;exitDy=0;entryX=1;entryY=0;entryDx=0;entryDy=0;" edge="1" parent="ue5pnEDHFhkIbqX5kC11-204" source="ue5pnEDHFhkIbqX5kC11-37" target="ue5pnEDHFhkIbqX5kC11-45">
          <mxGeometry relative="1" as="geometry" />
        </mxCell>
        <mxCell id="ue5pnEDHFhkIbqX5kC11-122" style="rounded=0;orthogonalLoop=1;jettySize=auto;html=1;exitX=0;exitY=1;exitDx=0;exitDy=0;entryX=0;entryY=0;entryDx=0;entryDy=0;" edge="1" parent="ue5pnEDHFhkIbqX5kC11-204" source="ue5pnEDHFhkIbqX5kC11-32" target="ue5pnEDHFhkIbqX5kC11-86">
          <mxGeometry relative="1" as="geometry" />
        </mxCell>
        <mxCell id="ue5pnEDHFhkIbqX5kC11-123" style="rounded=0;orthogonalLoop=1;jettySize=auto;html=1;exitX=1;exitY=1;exitDx=0;exitDy=0;entryX=1;entryY=0;entryDx=0;entryDy=0;" edge="1" parent="ue5pnEDHFhkIbqX5kC11-204" source="ue5pnEDHFhkIbqX5kC11-32" target="ue5pnEDHFhkIbqX5kC11-80">
          <mxGeometry relative="1" as="geometry" />
        </mxCell>
        <mxCell id="ue5pnEDHFhkIbqX5kC11-124" style="rounded=0;orthogonalLoop=1;jettySize=auto;html=1;exitX=0;exitY=1;exitDx=0;exitDy=0;entryX=1;entryY=0;entryDx=0;entryDy=0;" edge="1" parent="ue5pnEDHFhkIbqX5kC11-204" source="ue5pnEDHFhkIbqX5kC11-30" target="ue5pnEDHFhkIbqX5kC11-95">
          <mxGeometry relative="1" as="geometry" />
        </mxCell>
        <mxCell id="ue5pnEDHFhkIbqX5kC11-205" value="" style="group" vertex="1" connectable="0" parent="1">
          <mxGeometry x="-120" y="340" width="1560" height="200" as="geometry" />
        </mxCell>
        <mxCell id="ue5pnEDHFhkIbqX5kC11-206" value="" style="group;fontSize=24;" vertex="1" connectable="0" parent="ue5pnEDHFhkIbqX5kC11-205">
          <mxGeometry x="900" width="160" height="40" as="geometry" />
        </mxCell>
        <mxCell id="ue5pnEDHFhkIbqX5kC11-207" value="" style="rounded=0;whiteSpace=wrap;html=1;fontSize=24;" vertex="1" parent="ue5pnEDHFhkIbqX5kC11-206">
          <mxGeometry width="160" height="40" as="geometry" />
        </mxCell>
        <mxCell id="ue5pnEDHFhkIbqX5kC11-208" style="edgeStyle=orthogonalEdgeStyle;rounded=0;orthogonalLoop=1;jettySize=auto;html=1;exitX=0.5;exitY=1;exitDx=0;exitDy=0;fontSize=24;" edge="1" parent="ue5pnEDHFhkIbqX5kC11-206" source="ue5pnEDHFhkIbqX5kC11-207" target="ue5pnEDHFhkIbqX5kC11-207">
          <mxGeometry relative="1" as="geometry" />
        </mxCell>
        <mxCell id="ue5pnEDHFhkIbqX5kC11-209" value="" style="rounded=0;whiteSpace=wrap;html=1;fontSize=24;" vertex="1" parent="ue5pnEDHFhkIbqX5kC11-206">
          <mxGeometry x="120" width="40" height="40" as="geometry" />
        </mxCell>
        <mxCell id="ue5pnEDHFhkIbqX5kC11-210" value="" style="rounded=0;whiteSpace=wrap;html=1;fontSize=24;" vertex="1" parent="ue5pnEDHFhkIbqX5kC11-206">
          <mxGeometry x="80" width="40" height="40" as="geometry" />
        </mxCell>
        <mxCell id="ue5pnEDHFhkIbqX5kC11-211" value="" style="rounded=0;whiteSpace=wrap;html=1;fontSize=24;" vertex="1" parent="ue5pnEDHFhkIbqX5kC11-206">
          <mxGeometry x="40" width="40" height="40" as="geometry" />
        </mxCell>
        <mxCell id="ue5pnEDHFhkIbqX5kC11-212" value="43" style="rounded=0;whiteSpace=wrap;html=1;fontSize=24;" vertex="1" parent="ue5pnEDHFhkIbqX5kC11-206">
          <mxGeometry width="40" height="40" as="geometry" />
        </mxCell>
        <mxCell id="ue5pnEDHFhkIbqX5kC11-213" value="" style="group;fontSize=24;" vertex="1" connectable="0" parent="ue5pnEDHFhkIbqX5kC11-205">
          <mxGeometry x="1200" y="80" width="160" height="40" as="geometry" />
        </mxCell>
        <mxCell id="ue5pnEDHFhkIbqX5kC11-214" value="" style="rounded=0;whiteSpace=wrap;html=1;fontSize=24;" vertex="1" parent="ue5pnEDHFhkIbqX5kC11-213">
          <mxGeometry width="160" height="40" as="geometry" />
        </mxCell>
        <mxCell id="ue5pnEDHFhkIbqX5kC11-215" style="edgeStyle=orthogonalEdgeStyle;rounded=0;orthogonalLoop=1;jettySize=auto;html=1;exitX=0.5;exitY=1;exitDx=0;exitDy=0;fontSize=24;" edge="1" parent="ue5pnEDHFhkIbqX5kC11-213" source="ue5pnEDHFhkIbqX5kC11-214" target="ue5pnEDHFhkIbqX5kC11-214">
          <mxGeometry relative="1" as="geometry" />
        </mxCell>
        <mxCell id="ue5pnEDHFhkIbqX5kC11-216" value="" style="rounded=0;whiteSpace=wrap;html=1;fontSize=24;" vertex="1" parent="ue5pnEDHFhkIbqX5kC11-213">
          <mxGeometry x="120" width="40" height="40" as="geometry" />
        </mxCell>
        <mxCell id="ue5pnEDHFhkIbqX5kC11-217" value="" style="rounded=0;whiteSpace=wrap;html=1;fontSize=24;" vertex="1" parent="ue5pnEDHFhkIbqX5kC11-213">
          <mxGeometry x="80" width="40" height="40" as="geometry" />
        </mxCell>
        <mxCell id="ue5pnEDHFhkIbqX5kC11-218" value="70" style="rounded=0;whiteSpace=wrap;html=1;fontSize=24;" vertex="1" parent="ue5pnEDHFhkIbqX5kC11-213">
          <mxGeometry x="40" width="40" height="40" as="geometry" />
        </mxCell>
        <mxCell id="ue5pnEDHFhkIbqX5kC11-219" value="56" style="rounded=0;whiteSpace=wrap;html=1;fontSize=24;" vertex="1" parent="ue5pnEDHFhkIbqX5kC11-213">
          <mxGeometry width="40" height="40" as="geometry" />
        </mxCell>
        <mxCell id="ue5pnEDHFhkIbqX5kC11-220" value="" style="group;fontSize=24;" vertex="1" connectable="0" parent="ue5pnEDHFhkIbqX5kC11-205">
          <mxGeometry x="400" y="80" width="160" height="40" as="geometry" />
        </mxCell>
        <mxCell id="ue5pnEDHFhkIbqX5kC11-221" value="" style="rounded=0;whiteSpace=wrap;html=1;fontSize=24;" vertex="1" parent="ue5pnEDHFhkIbqX5kC11-220">
          <mxGeometry width="160" height="40" as="geometry" />
        </mxCell>
        <mxCell id="ue5pnEDHFhkIbqX5kC11-222" style="edgeStyle=orthogonalEdgeStyle;rounded=0;orthogonalLoop=1;jettySize=auto;html=1;exitX=0.5;exitY=1;exitDx=0;exitDy=0;fontSize=24;" edge="1" parent="ue5pnEDHFhkIbqX5kC11-220" source="ue5pnEDHFhkIbqX5kC11-221" target="ue5pnEDHFhkIbqX5kC11-221">
          <mxGeometry relative="1" as="geometry" />
        </mxCell>
        <mxCell id="ue5pnEDHFhkIbqX5kC11-223" value="" style="rounded=0;whiteSpace=wrap;html=1;fontSize=24;" vertex="1" parent="ue5pnEDHFhkIbqX5kC11-220">
          <mxGeometry x="120" width="40" height="40" as="geometry" />
        </mxCell>
        <mxCell id="ue5pnEDHFhkIbqX5kC11-224" value="17" style="rounded=0;whiteSpace=wrap;html=1;fontSize=24;" vertex="1" parent="ue5pnEDHFhkIbqX5kC11-220">
          <mxGeometry x="80" width="40" height="40" as="geometry" />
        </mxCell>
        <mxCell id="ue5pnEDHFhkIbqX5kC11-225" value="10" style="rounded=0;whiteSpace=wrap;html=1;fontSize=24;" vertex="1" parent="ue5pnEDHFhkIbqX5kC11-220">
          <mxGeometry x="40" width="40" height="40" as="geometry" />
        </mxCell>
        <mxCell id="ue5pnEDHFhkIbqX5kC11-226" value="6" style="rounded=0;whiteSpace=wrap;html=1;fontSize=24;" vertex="1" parent="ue5pnEDHFhkIbqX5kC11-220">
          <mxGeometry width="40" height="40" as="geometry" />
        </mxCell>
        <mxCell id="ue5pnEDHFhkIbqX5kC11-227" value="" style="group;fontSize=24;" vertex="1" connectable="0" parent="ue5pnEDHFhkIbqX5kC11-205">
          <mxGeometry x="600" y="160" width="160" height="40" as="geometry" />
        </mxCell>
        <mxCell id="ue5pnEDHFhkIbqX5kC11-228" value="" style="rounded=0;whiteSpace=wrap;html=1;fontSize=24;" vertex="1" parent="ue5pnEDHFhkIbqX5kC11-227">
          <mxGeometry width="160" height="40" as="geometry" />
        </mxCell>
        <mxCell id="ue5pnEDHFhkIbqX5kC11-229" style="edgeStyle=orthogonalEdgeStyle;rounded=0;orthogonalLoop=1;jettySize=auto;html=1;exitX=0.5;exitY=1;exitDx=0;exitDy=0;fontSize=24;" edge="1" parent="ue5pnEDHFhkIbqX5kC11-227" source="ue5pnEDHFhkIbqX5kC11-228" target="ue5pnEDHFhkIbqX5kC11-228">
          <mxGeometry relative="1" as="geometry" />
        </mxCell>
        <mxCell id="ue5pnEDHFhkIbqX5kC11-230" value="" style="rounded=0;whiteSpace=wrap;html=1;fontSize=24;" vertex="1" parent="ue5pnEDHFhkIbqX5kC11-227">
          <mxGeometry x="120" width="40" height="40" as="geometry" />
        </mxCell>
        <mxCell id="ue5pnEDHFhkIbqX5kC11-231" value="19" style="rounded=0;whiteSpace=wrap;html=1;fontSize=24;" vertex="1" parent="ue5pnEDHFhkIbqX5kC11-227">
          <mxGeometry x="80" width="40" height="40" as="geometry" />
        </mxCell>
        <mxCell id="ue5pnEDHFhkIbqX5kC11-232" value="18" style="rounded=0;whiteSpace=wrap;html=1;fontSize=24;" vertex="1" parent="ue5pnEDHFhkIbqX5kC11-227">
          <mxGeometry x="40" width="40" height="40" as="geometry" />
        </mxCell>
        <mxCell id="ue5pnEDHFhkIbqX5kC11-233" value="17" style="rounded=0;whiteSpace=wrap;html=1;fontSize=24;" vertex="1" parent="ue5pnEDHFhkIbqX5kC11-227">
          <mxGeometry width="40" height="40" as="geometry" />
        </mxCell>
        <mxCell id="ue5pnEDHFhkIbqX5kC11-234" value="" style="group;fontSize=24;" vertex="1" connectable="0" parent="ue5pnEDHFhkIbqX5kC11-205">
          <mxGeometry x="400" y="160" width="160" height="40" as="geometry" />
        </mxCell>
        <mxCell id="ue5pnEDHFhkIbqX5kC11-235" value="" style="rounded=0;whiteSpace=wrap;html=1;fontSize=24;" vertex="1" parent="ue5pnEDHFhkIbqX5kC11-234">
          <mxGeometry width="160" height="40" as="geometry" />
        </mxCell>
        <mxCell id="ue5pnEDHFhkIbqX5kC11-236" style="edgeStyle=orthogonalEdgeStyle;rounded=0;orthogonalLoop=1;jettySize=auto;html=1;exitX=0.5;exitY=1;exitDx=0;exitDy=0;fontSize=24;" edge="1" parent="ue5pnEDHFhkIbqX5kC11-234" source="ue5pnEDHFhkIbqX5kC11-235" target="ue5pnEDHFhkIbqX5kC11-235">
          <mxGeometry relative="1" as="geometry" />
        </mxCell>
        <mxCell id="ue5pnEDHFhkIbqX5kC11-237" value="" style="rounded=0;whiteSpace=wrap;html=1;fontSize=24;" vertex="1" parent="ue5pnEDHFhkIbqX5kC11-234">
          <mxGeometry x="120" width="40" height="40" as="geometry" />
        </mxCell>
        <mxCell id="ue5pnEDHFhkIbqX5kC11-238" value="" style="rounded=0;whiteSpace=wrap;html=1;fontSize=24;" vertex="1" parent="ue5pnEDHFhkIbqX5kC11-234">
          <mxGeometry x="80" width="40" height="40" as="geometry" />
        </mxCell>
        <mxCell id="ue5pnEDHFhkIbqX5kC11-239" value="13" style="rounded=0;whiteSpace=wrap;html=1;fontSize=24;" vertex="1" parent="ue5pnEDHFhkIbqX5kC11-234">
          <mxGeometry x="40" width="40" height="40" as="geometry" />
        </mxCell>
        <mxCell id="ue5pnEDHFhkIbqX5kC11-240" value="10" style="rounded=0;whiteSpace=wrap;html=1;fontSize=24;" vertex="1" parent="ue5pnEDHFhkIbqX5kC11-234">
          <mxGeometry width="40" height="40" as="geometry" />
        </mxCell>
        <mxCell id="ue5pnEDHFhkIbqX5kC11-241" value="" style="group;fontSize=24;" vertex="1" connectable="0" parent="ue5pnEDHFhkIbqX5kC11-205">
          <mxGeometry x="200" y="160" width="160" height="40" as="geometry" />
        </mxCell>
        <mxCell id="ue5pnEDHFhkIbqX5kC11-242" value="" style="rounded=0;whiteSpace=wrap;html=1;fontSize=24;" vertex="1" parent="ue5pnEDHFhkIbqX5kC11-241">
          <mxGeometry width="160" height="40" as="geometry" />
        </mxCell>
        <mxCell id="ue5pnEDHFhkIbqX5kC11-243" style="edgeStyle=orthogonalEdgeStyle;rounded=0;orthogonalLoop=1;jettySize=auto;html=1;exitX=0.5;exitY=1;exitDx=0;exitDy=0;fontSize=24;" edge="1" parent="ue5pnEDHFhkIbqX5kC11-241" source="ue5pnEDHFhkIbqX5kC11-242" target="ue5pnEDHFhkIbqX5kC11-242">
          <mxGeometry relative="1" as="geometry" />
        </mxCell>
        <mxCell id="ue5pnEDHFhkIbqX5kC11-244" value="" style="rounded=0;whiteSpace=wrap;html=1;fontSize=24;" vertex="1" parent="ue5pnEDHFhkIbqX5kC11-241">
          <mxGeometry x="120" width="40" height="40" as="geometry" />
        </mxCell>
        <mxCell id="ue5pnEDHFhkIbqX5kC11-245" value="9" style="rounded=0;whiteSpace=wrap;html=1;fontSize=24;" vertex="1" parent="ue5pnEDHFhkIbqX5kC11-241">
          <mxGeometry x="80" width="40" height="40" as="geometry" />
        </mxCell>
        <mxCell id="ue5pnEDHFhkIbqX5kC11-246" value="8" style="rounded=0;whiteSpace=wrap;html=1;fontSize=24;" vertex="1" parent="ue5pnEDHFhkIbqX5kC11-241">
          <mxGeometry x="40" width="40" height="40" as="geometry" />
        </mxCell>
        <mxCell id="ue5pnEDHFhkIbqX5kC11-247" value="6" style="rounded=0;whiteSpace=wrap;html=1;fontSize=24;" vertex="1" parent="ue5pnEDHFhkIbqX5kC11-241">
          <mxGeometry width="40" height="40" as="geometry" />
        </mxCell>
        <mxCell id="ue5pnEDHFhkIbqX5kC11-248" value="" style="group;fontSize=24;" vertex="1" connectable="0" parent="ue5pnEDHFhkIbqX5kC11-205">
          <mxGeometry y="160" width="160" height="40" as="geometry" />
        </mxCell>
        <mxCell id="ue5pnEDHFhkIbqX5kC11-249" value="" style="rounded=0;whiteSpace=wrap;html=1;fontSize=24;" vertex="1" parent="ue5pnEDHFhkIbqX5kC11-248">
          <mxGeometry width="160" height="40" as="geometry" />
        </mxCell>
        <mxCell id="ue5pnEDHFhkIbqX5kC11-250" style="edgeStyle=orthogonalEdgeStyle;rounded=0;orthogonalLoop=1;jettySize=auto;html=1;exitX=0.5;exitY=1;exitDx=0;exitDy=0;fontSize=24;" edge="1" parent="ue5pnEDHFhkIbqX5kC11-248" source="ue5pnEDHFhkIbqX5kC11-249" target="ue5pnEDHFhkIbqX5kC11-249">
          <mxGeometry relative="1" as="geometry" />
        </mxCell>
        <mxCell id="ue5pnEDHFhkIbqX5kC11-251" value="" style="rounded=0;whiteSpace=wrap;html=1;fontSize=24;" vertex="1" parent="ue5pnEDHFhkIbqX5kC11-248">
          <mxGeometry x="120" width="40" height="40" as="geometry" />
        </mxCell>
        <mxCell id="ue5pnEDHFhkIbqX5kC11-252" value="" style="rounded=0;whiteSpace=wrap;html=1;fontSize=24;" vertex="1" parent="ue5pnEDHFhkIbqX5kC11-248">
          <mxGeometry x="80" width="40" height="40" as="geometry" />
        </mxCell>
        <mxCell id="ue5pnEDHFhkIbqX5kC11-253" value="5" style="rounded=0;whiteSpace=wrap;html=1;fontSize=24;" vertex="1" parent="ue5pnEDHFhkIbqX5kC11-248">
          <mxGeometry x="40" width="40" height="40" as="geometry" />
        </mxCell>
        <mxCell id="ue5pnEDHFhkIbqX5kC11-254" value="2" style="rounded=0;whiteSpace=wrap;html=1;fontSize=24;" vertex="1" parent="ue5pnEDHFhkIbqX5kC11-248">
          <mxGeometry width="40" height="40" as="geometry" />
        </mxCell>
        <mxCell id="ue5pnEDHFhkIbqX5kC11-255" value="" style="group;fontSize=24;" vertex="1" connectable="0" parent="ue5pnEDHFhkIbqX5kC11-205">
          <mxGeometry x="1200" y="160" width="160" height="40" as="geometry" />
        </mxCell>
        <mxCell id="ue5pnEDHFhkIbqX5kC11-256" value="" style="rounded=0;whiteSpace=wrap;html=1;fontSize=24;" vertex="1" parent="ue5pnEDHFhkIbqX5kC11-255">
          <mxGeometry width="160" height="40" as="geometry" />
        </mxCell>
        <mxCell id="ue5pnEDHFhkIbqX5kC11-257" style="edgeStyle=orthogonalEdgeStyle;rounded=0;orthogonalLoop=1;jettySize=auto;html=1;exitX=0.5;exitY=1;exitDx=0;exitDy=0;fontSize=24;" edge="1" parent="ue5pnEDHFhkIbqX5kC11-255" source="ue5pnEDHFhkIbqX5kC11-256" target="ue5pnEDHFhkIbqX5kC11-256">
          <mxGeometry relative="1" as="geometry" />
        </mxCell>
        <mxCell id="ue5pnEDHFhkIbqX5kC11-258" value="" style="rounded=0;whiteSpace=wrap;html=1;fontSize=24;" vertex="1" parent="ue5pnEDHFhkIbqX5kC11-255">
          <mxGeometry x="120" width="40" height="40" as="geometry" />
        </mxCell>
        <mxCell id="ue5pnEDHFhkIbqX5kC11-260" value="58" style="rounded=0;whiteSpace=wrap;html=1;fontSize=24;" vertex="1" parent="ue5pnEDHFhkIbqX5kC11-255">
          <mxGeometry x="40" width="40" height="40" as="geometry" />
        </mxCell>
        <mxCell id="ue5pnEDHFhkIbqX5kC11-261" value="56" style="rounded=0;whiteSpace=wrap;html=1;fontSize=24;" vertex="1" parent="ue5pnEDHFhkIbqX5kC11-255">
          <mxGeometry width="40" height="40" as="geometry" />
        </mxCell>
        <mxCell id="ue5pnEDHFhkIbqX5kC11-262" value="" style="group;fontSize=24;" vertex="1" connectable="0" parent="ue5pnEDHFhkIbqX5kC11-205">
          <mxGeometry x="1000" y="160" width="160" height="40" as="geometry" />
        </mxCell>
        <mxCell id="ue5pnEDHFhkIbqX5kC11-263" value="" style="rounded=0;whiteSpace=wrap;html=1;fontSize=24;" vertex="1" parent="ue5pnEDHFhkIbqX5kC11-262">
          <mxGeometry width="160" height="40" as="geometry" />
        </mxCell>
        <mxCell id="ue5pnEDHFhkIbqX5kC11-264" style="edgeStyle=orthogonalEdgeStyle;rounded=0;orthogonalLoop=1;jettySize=auto;html=1;exitX=0.5;exitY=1;exitDx=0;exitDy=0;fontSize=24;" edge="1" parent="ue5pnEDHFhkIbqX5kC11-262" source="ue5pnEDHFhkIbqX5kC11-263" target="ue5pnEDHFhkIbqX5kC11-263">
          <mxGeometry relative="1" as="geometry" />
        </mxCell>
        <mxCell id="ue5pnEDHFhkIbqX5kC11-265" value="" style="rounded=0;whiteSpace=wrap;html=1;fontSize=24;" vertex="1" parent="ue5pnEDHFhkIbqX5kC11-262">
          <mxGeometry x="120" width="40" height="40" as="geometry" />
        </mxCell>
        <mxCell id="ue5pnEDHFhkIbqX5kC11-266" value="" style="rounded=0;whiteSpace=wrap;html=1;fontSize=24;" vertex="1" parent="ue5pnEDHFhkIbqX5kC11-262">
          <mxGeometry x="80" width="40" height="40" as="geometry" />
        </mxCell>
        <mxCell id="ue5pnEDHFhkIbqX5kC11-267" value="44" style="rounded=0;whiteSpace=wrap;html=1;fontSize=24;" vertex="1" parent="ue5pnEDHFhkIbqX5kC11-262">
          <mxGeometry x="40" width="40" height="40" as="geometry" />
        </mxCell>
        <mxCell id="ue5pnEDHFhkIbqX5kC11-268" value="43" style="rounded=0;whiteSpace=wrap;html=1;fontSize=24;" vertex="1" parent="ue5pnEDHFhkIbqX5kC11-262">
          <mxGeometry width="40" height="40" as="geometry" />
        </mxCell>
        <mxCell id="ue5pnEDHFhkIbqX5kC11-269" value="" style="group;fontSize=24;" vertex="1" connectable="0" parent="ue5pnEDHFhkIbqX5kC11-205">
          <mxGeometry x="1400" y="160" width="160" height="40" as="geometry" />
        </mxCell>
        <mxCell id="ue5pnEDHFhkIbqX5kC11-270" value="" style="rounded=0;whiteSpace=wrap;html=1;fontSize=24;" vertex="1" parent="ue5pnEDHFhkIbqX5kC11-269">
          <mxGeometry width="160" height="40" as="geometry" />
        </mxCell>
        <mxCell id="ue5pnEDHFhkIbqX5kC11-271" style="edgeStyle=orthogonalEdgeStyle;rounded=0;orthogonalLoop=1;jettySize=auto;html=1;exitX=0.5;exitY=1;exitDx=0;exitDy=0;fontSize=24;" edge="1" parent="ue5pnEDHFhkIbqX5kC11-269" source="ue5pnEDHFhkIbqX5kC11-270" target="ue5pnEDHFhkIbqX5kC11-270">
          <mxGeometry relative="1" as="geometry" />
        </mxCell>
        <mxCell id="ue5pnEDHFhkIbqX5kC11-272" value="" style="rounded=0;whiteSpace=wrap;html=1;fontSize=24;" vertex="1" parent="ue5pnEDHFhkIbqX5kC11-269">
          <mxGeometry x="120" width="40" height="40" as="geometry" />
        </mxCell>
        <mxCell id="ue5pnEDHFhkIbqX5kC11-273" value="" style="rounded=0;whiteSpace=wrap;html=1;fontSize=24;" vertex="1" parent="ue5pnEDHFhkIbqX5kC11-269">
          <mxGeometry x="80" width="40" height="40" as="geometry" />
        </mxCell>
        <mxCell id="ue5pnEDHFhkIbqX5kC11-274" value="73" style="rounded=0;whiteSpace=wrap;html=1;fontSize=24;" vertex="1" parent="ue5pnEDHFhkIbqX5kC11-269">
          <mxGeometry x="40" width="40" height="40" as="geometry" />
        </mxCell>
        <mxCell id="ue5pnEDHFhkIbqX5kC11-275" value="70" style="rounded=0;whiteSpace=wrap;html=1;fontSize=24;" vertex="1" parent="ue5pnEDHFhkIbqX5kC11-269">
          <mxGeometry width="40" height="40" as="geometry" />
        </mxCell>
        <mxCell id="ue5pnEDHFhkIbqX5kC11-276" style="rounded=0;orthogonalLoop=1;jettySize=auto;html=1;exitX=0;exitY=1;exitDx=0;exitDy=0;entryX=0;entryY=0;entryDx=0;entryDy=0;" edge="1" parent="ue5pnEDHFhkIbqX5kC11-205" source="ue5pnEDHFhkIbqX5kC11-212" target="ue5pnEDHFhkIbqX5kC11-224">
          <mxGeometry relative="1" as="geometry" />
        </mxCell>
        <mxCell id="ue5pnEDHFhkIbqX5kC11-277" style="rounded=0;orthogonalLoop=1;jettySize=auto;html=1;exitX=1;exitY=1;exitDx=0;exitDy=0;entryX=1;entryY=0;entryDx=0;entryDy=0;" edge="1" parent="ue5pnEDHFhkIbqX5kC11-205" source="ue5pnEDHFhkIbqX5kC11-212" target="ue5pnEDHFhkIbqX5kC11-218">
          <mxGeometry relative="1" as="geometry" />
        </mxCell>
        <mxCell id="ue5pnEDHFhkIbqX5kC11-278" style="rounded=0;orthogonalLoop=1;jettySize=auto;html=1;exitX=0;exitY=1;exitDx=0;exitDy=0;entryX=0;entryY=0;entryDx=0;entryDy=0;" edge="1" parent="ue5pnEDHFhkIbqX5kC11-205" source="ue5pnEDHFhkIbqX5kC11-226" target="ue5pnEDHFhkIbqX5kC11-252">
          <mxGeometry relative="1" as="geometry" />
        </mxCell>
        <mxCell id="ue5pnEDHFhkIbqX5kC11-279" style="rounded=0;orthogonalLoop=1;jettySize=auto;html=1;exitX=1;exitY=1;exitDx=0;exitDy=0;entryX=1;entryY=0;entryDx=0;entryDy=0;" edge="1" parent="ue5pnEDHFhkIbqX5kC11-205" source="ue5pnEDHFhkIbqX5kC11-226" target="ue5pnEDHFhkIbqX5kC11-246">
          <mxGeometry relative="1" as="geometry" />
        </mxCell>
        <mxCell id="ue5pnEDHFhkIbqX5kC11-280" style="rounded=0;orthogonalLoop=1;jettySize=auto;html=1;exitX=1;exitY=1;exitDx=0;exitDy=0;entryX=1;entryY=0;entryDx=0;entryDy=0;" edge="1" parent="ue5pnEDHFhkIbqX5kC11-205" source="ue5pnEDHFhkIbqX5kC11-225" target="ue5pnEDHFhkIbqX5kC11-239">
          <mxGeometry relative="1" as="geometry" />
        </mxCell>
        <mxCell id="ue5pnEDHFhkIbqX5kC11-281" style="rounded=0;orthogonalLoop=1;jettySize=auto;html=1;exitX=1;exitY=1;exitDx=0;exitDy=0;entryX=1;entryY=0;entryDx=0;entryDy=0;" edge="1" parent="ue5pnEDHFhkIbqX5kC11-205" source="ue5pnEDHFhkIbqX5kC11-224" target="ue5pnEDHFhkIbqX5kC11-232">
          <mxGeometry relative="1" as="geometry" />
        </mxCell>
        <mxCell id="ue5pnEDHFhkIbqX5kC11-282" style="rounded=0;orthogonalLoop=1;jettySize=auto;html=1;exitX=0;exitY=1;exitDx=0;exitDy=0;entryX=0;entryY=0;entryDx=0;entryDy=0;" edge="1" parent="ue5pnEDHFhkIbqX5kC11-205" source="ue5pnEDHFhkIbqX5kC11-219" target="ue5pnEDHFhkIbqX5kC11-266">
          <mxGeometry relative="1" as="geometry" />
        </mxCell>
        <mxCell id="ue5pnEDHFhkIbqX5kC11-283" style="rounded=0;orthogonalLoop=1;jettySize=auto;html=1;exitX=1;exitY=1;exitDx=0;exitDy=0;entryX=1;entryY=0;entryDx=0;entryDy=0;" edge="1" parent="ue5pnEDHFhkIbqX5kC11-205" source="ue5pnEDHFhkIbqX5kC11-219" target="ue5pnEDHFhkIbqX5kC11-260">
          <mxGeometry relative="1" as="geometry" />
        </mxCell>
        <mxCell id="ue5pnEDHFhkIbqX5kC11-284" style="rounded=0;orthogonalLoop=1;jettySize=auto;html=1;exitX=0;exitY=1;exitDx=0;exitDy=0;entryX=1;entryY=0;entryDx=0;entryDy=0;" edge="1" parent="ue5pnEDHFhkIbqX5kC11-205" source="ue5pnEDHFhkIbqX5kC11-217" target="ue5pnEDHFhkIbqX5kC11-275">
          <mxGeometry relative="1" as="geometry" />
        </mxCell>
        <mxCell id="ue5pnEDHFhkIbqX5kC11-356" style="rounded=0;orthogonalLoop=1;jettySize=auto;html=1;exitX=0;exitY=1;exitDx=0;exitDy=0;entryX=0;entryY=0;entryDx=0;entryDy=0;" edge="1" parent="1" source="ue5pnEDHFhkIbqX5kC11-292" target="ue5pnEDHFhkIbqX5kC11-304">
          <mxGeometry relative="1" as="geometry" />
        </mxCell>
        <mxCell id="ue5pnEDHFhkIbqX5kC11-357" style="rounded=0;orthogonalLoop=1;jettySize=auto;html=1;exitX=1;exitY=1;exitDx=0;exitDy=0;entryX=1;entryY=0;entryDx=0;entryDy=0;" edge="1" parent="1" source="ue5pnEDHFhkIbqX5kC11-292" target="ue5pnEDHFhkIbqX5kC11-298">
          <mxGeometry relative="1" as="geometry" />
        </mxCell>
        <mxCell id="ue5pnEDHFhkIbqX5kC11-358" style="rounded=0;orthogonalLoop=1;jettySize=auto;html=1;exitX=0;exitY=1;exitDx=0;exitDy=0;entryX=0;entryY=0;entryDx=0;entryDy=0;" edge="1" parent="1" source="ue5pnEDHFhkIbqX5kC11-306" target="ue5pnEDHFhkIbqX5kC11-332">
          <mxGeometry relative="1" as="geometry" />
        </mxCell>
        <mxCell id="ue5pnEDHFhkIbqX5kC11-359" style="rounded=0;orthogonalLoop=1;jettySize=auto;html=1;exitX=1;exitY=1;exitDx=0;exitDy=0;entryX=1;entryY=0;entryDx=0;entryDy=0;" edge="1" parent="1" source="ue5pnEDHFhkIbqX5kC11-306" target="ue5pnEDHFhkIbqX5kC11-326">
          <mxGeometry relative="1" as="geometry" />
        </mxCell>
        <mxCell id="ue5pnEDHFhkIbqX5kC11-360" style="rounded=0;orthogonalLoop=1;jettySize=auto;html=1;exitX=1;exitY=1;exitDx=0;exitDy=0;entryX=1;entryY=0;entryDx=0;entryDy=0;" edge="1" parent="1" source="ue5pnEDHFhkIbqX5kC11-305" target="ue5pnEDHFhkIbqX5kC11-319">
          <mxGeometry relative="1" as="geometry" />
        </mxCell>
        <mxCell id="ue5pnEDHFhkIbqX5kC11-361" style="rounded=0;orthogonalLoop=1;jettySize=auto;html=1;exitX=1;exitY=1;exitDx=0;exitDy=0;entryX=1;entryY=0;entryDx=0;entryDy=0;" edge="1" parent="1" source="ue5pnEDHFhkIbqX5kC11-304" target="ue5pnEDHFhkIbqX5kC11-312">
          <mxGeometry relative="1" as="geometry" />
        </mxCell>
        <mxCell id="ue5pnEDHFhkIbqX5kC11-287" value="" style="rounded=0;whiteSpace=wrap;html=1;fontSize=24;container=0;" vertex="1" parent="1">
          <mxGeometry x="780" y="770" width="160" height="40" as="geometry" />
        </mxCell>
        <mxCell id="ue5pnEDHFhkIbqX5kC11-288" style="edgeStyle=orthogonalEdgeStyle;rounded=0;orthogonalLoop=1;jettySize=auto;html=1;exitX=0.5;exitY=1;exitDx=0;exitDy=0;fontSize=24;" edge="1" parent="1" source="ue5pnEDHFhkIbqX5kC11-287" target="ue5pnEDHFhkIbqX5kC11-287">
          <mxGeometry relative="1" as="geometry" />
        </mxCell>
        <mxCell id="ue5pnEDHFhkIbqX5kC11-289" value="" style="rounded=0;whiteSpace=wrap;html=1;fontSize=24;container=0;" vertex="1" parent="1">
          <mxGeometry x="900" y="770" width="40" height="40" as="geometry" />
        </mxCell>
        <mxCell id="ue5pnEDHFhkIbqX5kC11-290" value="" style="rounded=0;whiteSpace=wrap;html=1;fontSize=24;container=0;" vertex="1" parent="1">
          <mxGeometry x="860" y="770" width="40" height="40" as="geometry" />
        </mxCell>
        <mxCell id="ue5pnEDHFhkIbqX5kC11-291" value="" style="rounded=0;whiteSpace=wrap;html=1;fontSize=24;container=0;" vertex="1" parent="1">
          <mxGeometry x="820" y="770" width="40" height="40" as="geometry" />
        </mxCell>
        <mxCell id="ue5pnEDHFhkIbqX5kC11-292" value="43" style="rounded=0;whiteSpace=wrap;html=1;fontSize=24;container=0;" vertex="1" parent="1">
          <mxGeometry x="780" y="770" width="40" height="40" as="geometry" />
        </mxCell>
        <mxCell id="ue5pnEDHFhkIbqX5kC11-294" value="" style="rounded=0;whiteSpace=wrap;html=1;fontSize=24;container=0;" vertex="1" parent="1">
          <mxGeometry x="1080" y="850" width="160" height="40" as="geometry" />
        </mxCell>
        <mxCell id="ue5pnEDHFhkIbqX5kC11-295" style="edgeStyle=orthogonalEdgeStyle;rounded=0;orthogonalLoop=1;jettySize=auto;html=1;exitX=0.5;exitY=1;exitDx=0;exitDy=0;fontSize=24;" edge="1" parent="1" source="ue5pnEDHFhkIbqX5kC11-294" target="ue5pnEDHFhkIbqX5kC11-294">
          <mxGeometry relative="1" as="geometry" />
        </mxCell>
        <mxCell id="ue5pnEDHFhkIbqX5kC11-296" value="" style="rounded=0;whiteSpace=wrap;html=1;fontSize=24;container=0;" vertex="1" parent="1">
          <mxGeometry x="1200" y="850" width="40" height="40" as="geometry" />
        </mxCell>
        <mxCell id="ue5pnEDHFhkIbqX5kC11-297" value="" style="rounded=0;whiteSpace=wrap;html=1;fontSize=24;container=0;" vertex="1" parent="1">
          <mxGeometry x="1160" y="850" width="40" height="40" as="geometry" />
        </mxCell>
        <mxCell id="ue5pnEDHFhkIbqX5kC11-298" value="" style="rounded=0;whiteSpace=wrap;html=1;fontSize=24;container=0;" vertex="1" parent="1">
          <mxGeometry x="1120" y="850" width="40" height="40" as="geometry" />
        </mxCell>
        <mxCell id="ue5pnEDHFhkIbqX5kC11-365" style="rounded=0;orthogonalLoop=1;jettySize=auto;html=1;exitX=0;exitY=1;exitDx=0;exitDy=0;entryX=1;entryY=0;entryDx=0;entryDy=0;" edge="1" parent="1" source="ue5pnEDHFhkIbqX5kC11-299" target="ue5pnEDHFhkIbqX5kC11-340">
          <mxGeometry relative="1" as="geometry" />
        </mxCell>
        <mxCell id="ue5pnEDHFhkIbqX5kC11-366" style="rounded=0;orthogonalLoop=1;jettySize=auto;html=1;exitX=1;exitY=1;exitDx=0;exitDy=0;entryX=0.5;entryY=0;entryDx=0;entryDy=0;" edge="1" parent="1" source="ue5pnEDHFhkIbqX5kC11-299" target="ue5pnEDHFhkIbqX5kC11-350">
          <mxGeometry relative="1" as="geometry" />
        </mxCell>
        <mxCell id="ue5pnEDHFhkIbqX5kC11-299" value="70" style="rounded=0;whiteSpace=wrap;html=1;fontSize=24;container=0;" vertex="1" parent="1">
          <mxGeometry x="1080" y="850" width="40" height="40" as="geometry" />
        </mxCell>
        <mxCell id="ue5pnEDHFhkIbqX5kC11-301" value="" style="rounded=0;whiteSpace=wrap;html=1;fontSize=24;container=0;" vertex="1" parent="1">
          <mxGeometry x="280" y="850" width="160" height="40" as="geometry" />
        </mxCell>
        <mxCell id="ue5pnEDHFhkIbqX5kC11-302" style="edgeStyle=orthogonalEdgeStyle;rounded=0;orthogonalLoop=1;jettySize=auto;html=1;exitX=0.5;exitY=1;exitDx=0;exitDy=0;fontSize=24;" edge="1" parent="1" source="ue5pnEDHFhkIbqX5kC11-301" target="ue5pnEDHFhkIbqX5kC11-301">
          <mxGeometry relative="1" as="geometry" />
        </mxCell>
        <mxCell id="ue5pnEDHFhkIbqX5kC11-303" value="" style="rounded=0;whiteSpace=wrap;html=1;fontSize=24;container=0;" vertex="1" parent="1">
          <mxGeometry x="400" y="850" width="40" height="40" as="geometry" />
        </mxCell>
        <mxCell id="ue5pnEDHFhkIbqX5kC11-304" value="17" style="rounded=0;whiteSpace=wrap;html=1;fontSize=24;container=0;" vertex="1" parent="1">
          <mxGeometry x="360" y="850" width="40" height="40" as="geometry" />
        </mxCell>
        <mxCell id="ue5pnEDHFhkIbqX5kC11-305" value="10" style="rounded=0;whiteSpace=wrap;html=1;fontSize=24;container=0;" vertex="1" parent="1">
          <mxGeometry x="320" y="850" width="40" height="40" as="geometry" />
        </mxCell>
        <mxCell id="ue5pnEDHFhkIbqX5kC11-306" value="6" style="rounded=0;whiteSpace=wrap;html=1;fontSize=24;container=0;" vertex="1" parent="1">
          <mxGeometry x="280" y="850" width="40" height="40" as="geometry" />
        </mxCell>
        <mxCell id="ue5pnEDHFhkIbqX5kC11-308" value="" style="rounded=0;whiteSpace=wrap;html=1;fontSize=24;container=0;" vertex="1" parent="1">
          <mxGeometry x="480" y="930" width="160" height="40" as="geometry" />
        </mxCell>
        <mxCell id="ue5pnEDHFhkIbqX5kC11-309" style="edgeStyle=orthogonalEdgeStyle;rounded=0;orthogonalLoop=1;jettySize=auto;html=1;exitX=0.5;exitY=1;exitDx=0;exitDy=0;fontSize=24;" edge="1" parent="1" source="ue5pnEDHFhkIbqX5kC11-308" target="ue5pnEDHFhkIbqX5kC11-308">
          <mxGeometry relative="1" as="geometry" />
        </mxCell>
        <mxCell id="ue5pnEDHFhkIbqX5kC11-310" value="" style="rounded=0;whiteSpace=wrap;html=1;fontSize=24;container=0;" vertex="1" parent="1">
          <mxGeometry x="600" y="930" width="40" height="40" as="geometry" />
        </mxCell>
        <mxCell id="ue5pnEDHFhkIbqX5kC11-311" value="19" style="rounded=0;whiteSpace=wrap;html=1;fontSize=24;container=0;" vertex="1" parent="1">
          <mxGeometry x="560" y="930" width="40" height="40" as="geometry" />
        </mxCell>
        <mxCell id="ue5pnEDHFhkIbqX5kC11-312" value="18" style="rounded=0;whiteSpace=wrap;html=1;fontSize=24;container=0;" vertex="1" parent="1">
          <mxGeometry x="520" y="930" width="40" height="40" as="geometry" />
        </mxCell>
        <mxCell id="ue5pnEDHFhkIbqX5kC11-313" value="17" style="rounded=0;whiteSpace=wrap;html=1;fontSize=24;container=0;" vertex="1" parent="1">
          <mxGeometry x="480" y="930" width="40" height="40" as="geometry" />
        </mxCell>
        <mxCell id="ue5pnEDHFhkIbqX5kC11-315" value="" style="rounded=0;whiteSpace=wrap;html=1;fontSize=24;container=0;" vertex="1" parent="1">
          <mxGeometry x="280" y="930" width="160" height="40" as="geometry" />
        </mxCell>
        <mxCell id="ue5pnEDHFhkIbqX5kC11-316" style="edgeStyle=orthogonalEdgeStyle;rounded=0;orthogonalLoop=1;jettySize=auto;html=1;exitX=0.5;exitY=1;exitDx=0;exitDy=0;fontSize=24;" edge="1" parent="1" source="ue5pnEDHFhkIbqX5kC11-315" target="ue5pnEDHFhkIbqX5kC11-315">
          <mxGeometry relative="1" as="geometry" />
        </mxCell>
        <mxCell id="ue5pnEDHFhkIbqX5kC11-317" value="" style="rounded=0;whiteSpace=wrap;html=1;fontSize=24;container=0;" vertex="1" parent="1">
          <mxGeometry x="400" y="930" width="40" height="40" as="geometry" />
        </mxCell>
        <mxCell id="ue5pnEDHFhkIbqX5kC11-318" value="" style="rounded=0;whiteSpace=wrap;html=1;fontSize=24;container=0;" vertex="1" parent="1">
          <mxGeometry x="360" y="930" width="40" height="40" as="geometry" />
        </mxCell>
        <mxCell id="ue5pnEDHFhkIbqX5kC11-319" value="13" style="rounded=0;whiteSpace=wrap;html=1;fontSize=24;container=0;" vertex="1" parent="1">
          <mxGeometry x="320" y="930" width="40" height="40" as="geometry" />
        </mxCell>
        <mxCell id="ue5pnEDHFhkIbqX5kC11-320" value="10" style="rounded=0;whiteSpace=wrap;html=1;fontSize=24;container=0;" vertex="1" parent="1">
          <mxGeometry x="280" y="930" width="40" height="40" as="geometry" />
        </mxCell>
        <mxCell id="ue5pnEDHFhkIbqX5kC11-322" value="" style="rounded=0;whiteSpace=wrap;html=1;fontSize=24;container=0;" vertex="1" parent="1">
          <mxGeometry x="80" y="930" width="160" height="40" as="geometry" />
        </mxCell>
        <mxCell id="ue5pnEDHFhkIbqX5kC11-323" style="edgeStyle=orthogonalEdgeStyle;rounded=0;orthogonalLoop=1;jettySize=auto;html=1;exitX=0.5;exitY=1;exitDx=0;exitDy=0;fontSize=24;" edge="1" parent="1" source="ue5pnEDHFhkIbqX5kC11-322" target="ue5pnEDHFhkIbqX5kC11-322">
          <mxGeometry relative="1" as="geometry" />
        </mxCell>
        <mxCell id="ue5pnEDHFhkIbqX5kC11-324" value="" style="rounded=0;whiteSpace=wrap;html=1;fontSize=24;container=0;" vertex="1" parent="1">
          <mxGeometry x="200" y="930" width="40" height="40" as="geometry" />
        </mxCell>
        <mxCell id="ue5pnEDHFhkIbqX5kC11-325" value="9" style="rounded=0;whiteSpace=wrap;html=1;fontSize=24;container=0;" vertex="1" parent="1">
          <mxGeometry x="160" y="930" width="40" height="40" as="geometry" />
        </mxCell>
        <mxCell id="ue5pnEDHFhkIbqX5kC11-326" value="8" style="rounded=0;whiteSpace=wrap;html=1;fontSize=24;container=0;" vertex="1" parent="1">
          <mxGeometry x="120" y="930" width="40" height="40" as="geometry" />
        </mxCell>
        <mxCell id="ue5pnEDHFhkIbqX5kC11-327" value="6" style="rounded=0;whiteSpace=wrap;html=1;fontSize=24;container=0;" vertex="1" parent="1">
          <mxGeometry x="80" y="930" width="40" height="40" as="geometry" />
        </mxCell>
        <mxCell id="ue5pnEDHFhkIbqX5kC11-329" value="" style="rounded=0;whiteSpace=wrap;html=1;fontSize=24;container=0;" vertex="1" parent="1">
          <mxGeometry x="-120" y="930" width="160" height="40" as="geometry" />
        </mxCell>
        <mxCell id="ue5pnEDHFhkIbqX5kC11-330" style="edgeStyle=orthogonalEdgeStyle;rounded=0;orthogonalLoop=1;jettySize=auto;html=1;exitX=0.5;exitY=1;exitDx=0;exitDy=0;fontSize=24;" edge="1" parent="1" source="ue5pnEDHFhkIbqX5kC11-329" target="ue5pnEDHFhkIbqX5kC11-329">
          <mxGeometry relative="1" as="geometry" />
        </mxCell>
        <mxCell id="ue5pnEDHFhkIbqX5kC11-331" value="" style="rounded=0;whiteSpace=wrap;html=1;fontSize=24;container=0;" vertex="1" parent="1">
          <mxGeometry y="930" width="40" height="40" as="geometry" />
        </mxCell>
        <mxCell id="ue5pnEDHFhkIbqX5kC11-332" value="" style="rounded=0;whiteSpace=wrap;html=1;fontSize=24;container=0;" vertex="1" parent="1">
          <mxGeometry x="-40" y="930" width="40" height="40" as="geometry" />
        </mxCell>
        <mxCell id="ue5pnEDHFhkIbqX5kC11-333" value="5" style="rounded=0;whiteSpace=wrap;html=1;fontSize=24;container=0;" vertex="1" parent="1">
          <mxGeometry x="-80" y="930" width="40" height="40" as="geometry" />
        </mxCell>
        <mxCell id="ue5pnEDHFhkIbqX5kC11-334" value="2" style="rounded=0;whiteSpace=wrap;html=1;fontSize=24;container=0;" vertex="1" parent="1">
          <mxGeometry x="-120" y="930" width="40" height="40" as="geometry" />
        </mxCell>
        <mxCell id="ue5pnEDHFhkIbqX5kC11-336" value="" style="rounded=0;whiteSpace=wrap;html=1;fontSize=24;container=0;" vertex="1" parent="1">
          <mxGeometry x="920" y="930" width="160" height="40" as="geometry" />
        </mxCell>
        <mxCell id="ue5pnEDHFhkIbqX5kC11-337" style="edgeStyle=orthogonalEdgeStyle;rounded=0;orthogonalLoop=1;jettySize=auto;html=1;exitX=0.5;exitY=1;exitDx=0;exitDy=0;fontSize=24;" edge="1" parent="1" source="ue5pnEDHFhkIbqX5kC11-336" target="ue5pnEDHFhkIbqX5kC11-336">
          <mxGeometry relative="1" as="geometry" />
        </mxCell>
        <mxCell id="ue5pnEDHFhkIbqX5kC11-338" value="" style="rounded=0;whiteSpace=wrap;html=1;fontSize=24;container=0;" vertex="1" parent="1">
          <mxGeometry x="1040" y="930" width="40" height="40" as="geometry" />
        </mxCell>
        <mxCell id="ue5pnEDHFhkIbqX5kC11-339" value="58" style="rounded=0;whiteSpace=wrap;html=1;fontSize=24;container=0;" vertex="1" parent="1">
          <mxGeometry x="1000" y="930" width="40" height="40" as="geometry" />
        </mxCell>
        <mxCell id="ue5pnEDHFhkIbqX5kC11-340" value="56" style="rounded=0;whiteSpace=wrap;html=1;fontSize=24;container=0;" vertex="1" parent="1">
          <mxGeometry x="960" y="930" width="40" height="40" as="geometry" />
        </mxCell>
        <mxCell id="ue5pnEDHFhkIbqX5kC11-341" value="44" style="rounded=0;whiteSpace=wrap;html=1;fontSize=24;container=0;" vertex="1" parent="1">
          <mxGeometry x="920" y="930" width="40" height="40" as="geometry" />
        </mxCell>
        <mxCell id="ue5pnEDHFhkIbqX5kC11-350" value="" style="rounded=0;whiteSpace=wrap;html=1;fontSize=24;container=0;" vertex="1" parent="1">
          <mxGeometry x="1180" y="930" width="160" height="40" as="geometry" />
        </mxCell>
        <mxCell id="ue5pnEDHFhkIbqX5kC11-351" style="edgeStyle=orthogonalEdgeStyle;rounded=0;orthogonalLoop=1;jettySize=auto;html=1;exitX=0.5;exitY=1;exitDx=0;exitDy=0;fontSize=24;" edge="1" parent="1" source="ue5pnEDHFhkIbqX5kC11-350" target="ue5pnEDHFhkIbqX5kC11-350">
          <mxGeometry relative="1" as="geometry" />
        </mxCell>
        <mxCell id="ue5pnEDHFhkIbqX5kC11-352" value="" style="rounded=0;whiteSpace=wrap;html=1;fontSize=24;container=0;" vertex="1" parent="1">
          <mxGeometry x="1300" y="930" width="40" height="40" as="geometry" />
        </mxCell>
        <mxCell id="ue5pnEDHFhkIbqX5kC11-353" value="" style="rounded=0;whiteSpace=wrap;html=1;fontSize=24;container=0;" vertex="1" parent="1">
          <mxGeometry x="1260" y="930" width="40" height="40" as="geometry" />
        </mxCell>
        <mxCell id="ue5pnEDHFhkIbqX5kC11-354" value="73" style="rounded=0;whiteSpace=wrap;html=1;fontSize=24;container=0;" vertex="1" parent="1">
          <mxGeometry x="1220" y="930" width="40" height="40" as="geometry" />
        </mxCell>
        <mxCell id="ue5pnEDHFhkIbqX5kC11-355" value="70" style="rounded=0;whiteSpace=wrap;html=1;fontSize=24;container=0;" vertex="1" parent="1">
          <mxGeometry x="1180" y="930" width="40" height="40" as="geometry" />
        </mxCell>
        <mxCell id="ue5pnEDHFhkIbqX5kC11-367" style="rounded=0;orthogonalLoop=1;jettySize=auto;html=1;exitX=0;exitY=1;exitDx=0;exitDy=0;entryX=0;entryY=0;entryDx=0;entryDy=0;" edge="1" parent="1" source="ue5pnEDHFhkIbqX5kC11-378" target="ue5pnEDHFhkIbqX5kC11-390">
          <mxGeometry relative="1" as="geometry" />
        </mxCell>
        <mxCell id="ue5pnEDHFhkIbqX5kC11-368" style="rounded=0;orthogonalLoop=1;jettySize=auto;html=1;exitX=1;exitY=1;exitDx=0;exitDy=0;entryX=1;entryY=0;entryDx=0;entryDy=0;" edge="1" parent="1" source="ue5pnEDHFhkIbqX5kC11-378" target="ue5pnEDHFhkIbqX5kC11-383">
          <mxGeometry relative="1" as="geometry" />
        </mxCell>
        <mxCell id="ue5pnEDHFhkIbqX5kC11-369" style="rounded=0;orthogonalLoop=1;jettySize=auto;html=1;exitX=0;exitY=1;exitDx=0;exitDy=0;entryX=0;entryY=0;entryDx=0;entryDy=0;" edge="1" parent="1" source="ue5pnEDHFhkIbqX5kC11-392" target="ue5pnEDHFhkIbqX5kC11-414">
          <mxGeometry relative="1" as="geometry" />
        </mxCell>
        <mxCell id="ue5pnEDHFhkIbqX5kC11-370" style="rounded=0;orthogonalLoop=1;jettySize=auto;html=1;exitX=1;exitY=1;exitDx=0;exitDy=0;entryX=1;entryY=0;entryDx=0;entryDy=0;" edge="1" parent="1" source="ue5pnEDHFhkIbqX5kC11-392" target="ue5pnEDHFhkIbqX5kC11-409">
          <mxGeometry relative="1" as="geometry" />
        </mxCell>
        <mxCell id="ue5pnEDHFhkIbqX5kC11-371" style="rounded=0;orthogonalLoop=1;jettySize=auto;html=1;exitX=1;exitY=1;exitDx=0;exitDy=0;entryX=1;entryY=0;entryDx=0;entryDy=0;" edge="1" parent="1" source="ue5pnEDHFhkIbqX5kC11-391" target="ue5pnEDHFhkIbqX5kC11-403">
          <mxGeometry relative="1" as="geometry" />
        </mxCell>
        <mxCell id="ue5pnEDHFhkIbqX5kC11-373" value="" style="rounded=0;whiteSpace=wrap;html=1;fontSize=24;container=0;" vertex="1" parent="1">
          <mxGeometry x="700" y="1100" width="160" height="40" as="geometry" />
        </mxCell>
        <mxCell id="ue5pnEDHFhkIbqX5kC11-374" style="edgeStyle=orthogonalEdgeStyle;rounded=0;orthogonalLoop=1;jettySize=auto;html=1;exitX=0.5;exitY=1;exitDx=0;exitDy=0;fontSize=24;" edge="1" parent="1" source="ue5pnEDHFhkIbqX5kC11-373" target="ue5pnEDHFhkIbqX5kC11-373">
          <mxGeometry relative="1" as="geometry" />
        </mxCell>
        <mxCell id="ue5pnEDHFhkIbqX5kC11-375" value="" style="rounded=0;whiteSpace=wrap;html=1;fontSize=24;container=0;" vertex="1" parent="1">
          <mxGeometry x="820" y="1100" width="40" height="40" as="geometry" />
        </mxCell>
        <mxCell id="ue5pnEDHFhkIbqX5kC11-376" value="" style="rounded=0;whiteSpace=wrap;html=1;fontSize=24;container=0;" vertex="1" parent="1">
          <mxGeometry x="780" y="1100" width="40" height="40" as="geometry" />
        </mxCell>
        <mxCell id="ue5pnEDHFhkIbqX5kC11-377" value="" style="rounded=0;whiteSpace=wrap;html=1;fontSize=24;container=0;" vertex="1" parent="1">
          <mxGeometry x="740" y="1100" width="40" height="40" as="geometry" />
        </mxCell>
        <mxCell id="ue5pnEDHFhkIbqX5kC11-378" value="17" style="rounded=0;whiteSpace=wrap;html=1;fontSize=24;container=0;" vertex="1" parent="1">
          <mxGeometry x="700" y="1100" width="40" height="40" as="geometry" />
        </mxCell>
        <mxCell id="ue5pnEDHFhkIbqX5kC11-379" value="" style="rounded=0;whiteSpace=wrap;html=1;fontSize=24;container=0;" vertex="1" parent="1">
          <mxGeometry x="960" y="1179.23" width="160" height="40" as="geometry" />
        </mxCell>
        <mxCell id="ue5pnEDHFhkIbqX5kC11-380" style="edgeStyle=orthogonalEdgeStyle;rounded=0;orthogonalLoop=1;jettySize=auto;html=1;exitX=0.5;exitY=1;exitDx=0;exitDy=0;fontSize=24;" edge="1" parent="1" source="ue5pnEDHFhkIbqX5kC11-379" target="ue5pnEDHFhkIbqX5kC11-379">
          <mxGeometry relative="1" as="geometry" />
        </mxCell>
        <mxCell id="ue5pnEDHFhkIbqX5kC11-381" value="" style="rounded=0;whiteSpace=wrap;html=1;fontSize=24;container=0;" vertex="1" parent="1">
          <mxGeometry x="1080" y="1179.23" width="40" height="40" as="geometry" />
        </mxCell>
        <mxCell id="ue5pnEDHFhkIbqX5kC11-431" style="rounded=0;orthogonalLoop=1;jettySize=auto;html=1;exitX=0;exitY=1;exitDx=0;exitDy=0;entryX=1;entryY=0;entryDx=0;entryDy=0;" edge="1" parent="1" source="ue5pnEDHFhkIbqX5kC11-382" target="ue5pnEDHFhkIbqX5kC11-427">
          <mxGeometry relative="1" as="geometry" />
        </mxCell>
        <mxCell id="ue5pnEDHFhkIbqX5kC11-382" value="" style="rounded=0;whiteSpace=wrap;html=1;fontSize=24;container=0;" vertex="1" parent="1">
          <mxGeometry x="1040" y="1179.23" width="40" height="40" as="geometry" />
        </mxCell>
        <mxCell id="ue5pnEDHFhkIbqX5kC11-430" style="rounded=0;orthogonalLoop=1;jettySize=auto;html=1;exitX=0;exitY=1;exitDx=0;exitDy=0;entryX=1;entryY=0;entryDx=0;entryDy=0;" edge="1" parent="1" source="ue5pnEDHFhkIbqX5kC11-383" target="ue5pnEDHFhkIbqX5kC11-421">
          <mxGeometry relative="1" as="geometry" />
        </mxCell>
        <mxCell id="ue5pnEDHFhkIbqX5kC11-383" value="70" style="rounded=0;whiteSpace=wrap;html=1;fontSize=24;container=0;" vertex="1" parent="1">
          <mxGeometry x="1000" y="1179.23" width="40" height="40" as="geometry" />
        </mxCell>
        <mxCell id="ue5pnEDHFhkIbqX5kC11-429" style="rounded=0;orthogonalLoop=1;jettySize=auto;html=1;exitX=0;exitY=1;exitDx=0;exitDy=0;entryX=1;entryY=0;entryDx=0;entryDy=0;" edge="1" parent="1" source="ue5pnEDHFhkIbqX5kC11-386" target="ue5pnEDHFhkIbqX5kC11-397">
          <mxGeometry relative="1" as="geometry" />
        </mxCell>
        <mxCell id="ue5pnEDHFhkIbqX5kC11-386" value="43" style="rounded=0;whiteSpace=wrap;html=1;fontSize=24;container=0;" vertex="1" parent="1">
          <mxGeometry x="960" y="1179.23" width="40" height="40" as="geometry" />
        </mxCell>
        <mxCell id="ue5pnEDHFhkIbqX5kC11-387" value="" style="rounded=0;whiteSpace=wrap;html=1;fontSize=24;container=0;" vertex="1" parent="1">
          <mxGeometry x="370" y="1180" width="160" height="40" as="geometry" />
        </mxCell>
        <mxCell id="ue5pnEDHFhkIbqX5kC11-388" style="edgeStyle=orthogonalEdgeStyle;rounded=0;orthogonalLoop=1;jettySize=auto;html=1;exitX=0.5;exitY=1;exitDx=0;exitDy=0;fontSize=24;" edge="1" parent="1" source="ue5pnEDHFhkIbqX5kC11-387" target="ue5pnEDHFhkIbqX5kC11-387">
          <mxGeometry relative="1" as="geometry" />
        </mxCell>
        <mxCell id="ue5pnEDHFhkIbqX5kC11-389" value="" style="rounded=0;whiteSpace=wrap;html=1;fontSize=24;container=0;" vertex="1" parent="1">
          <mxGeometry x="490" y="1180" width="40" height="40" as="geometry" />
        </mxCell>
        <mxCell id="ue5pnEDHFhkIbqX5kC11-390" value="" style="rounded=0;whiteSpace=wrap;html=1;fontSize=24;container=0;" vertex="1" parent="1">
          <mxGeometry x="450" y="1180" width="40" height="40" as="geometry" />
        </mxCell>
        <mxCell id="ue5pnEDHFhkIbqX5kC11-391" value="10" style="rounded=0;whiteSpace=wrap;html=1;fontSize=24;container=0;" vertex="1" parent="1">
          <mxGeometry x="410" y="1180" width="40" height="40" as="geometry" />
        </mxCell>
        <mxCell id="ue5pnEDHFhkIbqX5kC11-392" value="6" style="rounded=0;whiteSpace=wrap;html=1;fontSize=24;container=0;" vertex="1" parent="1">
          <mxGeometry x="370" y="1180" width="40" height="40" as="geometry" />
        </mxCell>
        <mxCell id="ue5pnEDHFhkIbqX5kC11-393" value="" style="rounded=0;whiteSpace=wrap;html=1;fontSize=24;container=0;" vertex="1" parent="1">
          <mxGeometry x="790" y="1259.23" width="160" height="40" as="geometry" />
        </mxCell>
        <mxCell id="ue5pnEDHFhkIbqX5kC11-394" style="edgeStyle=orthogonalEdgeStyle;rounded=0;orthogonalLoop=1;jettySize=auto;html=1;exitX=0.5;exitY=1;exitDx=0;exitDy=0;fontSize=24;" edge="1" parent="1" source="ue5pnEDHFhkIbqX5kC11-393" target="ue5pnEDHFhkIbqX5kC11-393">
          <mxGeometry relative="1" as="geometry" />
        </mxCell>
        <mxCell id="ue5pnEDHFhkIbqX5kC11-395" value="" style="rounded=0;whiteSpace=wrap;html=1;fontSize=24;container=0;" vertex="1" parent="1">
          <mxGeometry x="910" y="1259.23" width="40" height="40" as="geometry" />
        </mxCell>
        <mxCell id="ue5pnEDHFhkIbqX5kC11-396" value="19" style="rounded=0;whiteSpace=wrap;html=1;fontSize=24;container=0;" vertex="1" parent="1">
          <mxGeometry x="870" y="1259.23" width="40" height="40" as="geometry" />
        </mxCell>
        <mxCell id="ue5pnEDHFhkIbqX5kC11-397" value="18" style="rounded=0;whiteSpace=wrap;html=1;fontSize=24;container=0;" vertex="1" parent="1">
          <mxGeometry x="830" y="1259.23" width="40" height="40" as="geometry" />
        </mxCell>
        <mxCell id="ue5pnEDHFhkIbqX5kC11-398" value="17" style="rounded=0;whiteSpace=wrap;html=1;fontSize=24;container=0;" vertex="1" parent="1">
          <mxGeometry x="790" y="1259.23" width="40" height="40" as="geometry" />
        </mxCell>
        <mxCell id="ue5pnEDHFhkIbqX5kC11-399" value="" style="rounded=0;whiteSpace=wrap;html=1;fontSize=24;container=0;" vertex="1" parent="1">
          <mxGeometry x="370" y="1260" width="160" height="40" as="geometry" />
        </mxCell>
        <mxCell id="ue5pnEDHFhkIbqX5kC11-400" style="edgeStyle=orthogonalEdgeStyle;rounded=0;orthogonalLoop=1;jettySize=auto;html=1;exitX=0.5;exitY=1;exitDx=0;exitDy=0;fontSize=24;" edge="1" parent="1" source="ue5pnEDHFhkIbqX5kC11-399" target="ue5pnEDHFhkIbqX5kC11-399">
          <mxGeometry relative="1" as="geometry" />
        </mxCell>
        <mxCell id="ue5pnEDHFhkIbqX5kC11-401" value="" style="rounded=0;whiteSpace=wrap;html=1;fontSize=24;container=0;" vertex="1" parent="1">
          <mxGeometry x="490" y="1260" width="40" height="40" as="geometry" />
        </mxCell>
        <mxCell id="ue5pnEDHFhkIbqX5kC11-402" value="" style="rounded=0;whiteSpace=wrap;html=1;fontSize=24;container=0;" vertex="1" parent="1">
          <mxGeometry x="450" y="1260" width="40" height="40" as="geometry" />
        </mxCell>
        <mxCell id="ue5pnEDHFhkIbqX5kC11-403" value="13" style="rounded=0;whiteSpace=wrap;html=1;fontSize=24;container=0;" vertex="1" parent="1">
          <mxGeometry x="410" y="1260" width="40" height="40" as="geometry" />
        </mxCell>
        <mxCell id="ue5pnEDHFhkIbqX5kC11-404" value="10" style="rounded=0;whiteSpace=wrap;html=1;fontSize=24;container=0;" vertex="1" parent="1">
          <mxGeometry x="370" y="1260" width="40" height="40" as="geometry" />
        </mxCell>
        <mxCell id="ue5pnEDHFhkIbqX5kC11-405" value="" style="rounded=0;whiteSpace=wrap;html=1;fontSize=24;container=0;" vertex="1" parent="1">
          <mxGeometry x="170" y="1260" width="160" height="40" as="geometry" />
        </mxCell>
        <mxCell id="ue5pnEDHFhkIbqX5kC11-406" style="edgeStyle=orthogonalEdgeStyle;rounded=0;orthogonalLoop=1;jettySize=auto;html=1;exitX=0.5;exitY=1;exitDx=0;exitDy=0;fontSize=24;" edge="1" parent="1" source="ue5pnEDHFhkIbqX5kC11-405" target="ue5pnEDHFhkIbqX5kC11-405">
          <mxGeometry relative="1" as="geometry" />
        </mxCell>
        <mxCell id="ue5pnEDHFhkIbqX5kC11-407" value="" style="rounded=0;whiteSpace=wrap;html=1;fontSize=24;container=0;" vertex="1" parent="1">
          <mxGeometry x="290" y="1260" width="40" height="40" as="geometry" />
        </mxCell>
        <mxCell id="ue5pnEDHFhkIbqX5kC11-408" value="9" style="rounded=0;whiteSpace=wrap;html=1;fontSize=24;container=0;" vertex="1" parent="1">
          <mxGeometry x="250" y="1260" width="40" height="40" as="geometry" />
        </mxCell>
        <mxCell id="ue5pnEDHFhkIbqX5kC11-409" value="8" style="rounded=0;whiteSpace=wrap;html=1;fontSize=24;container=0;" vertex="1" parent="1">
          <mxGeometry x="210" y="1260" width="40" height="40" as="geometry" />
        </mxCell>
        <mxCell id="ue5pnEDHFhkIbqX5kC11-410" value="6" style="rounded=0;whiteSpace=wrap;html=1;fontSize=24;container=0;" vertex="1" parent="1">
          <mxGeometry x="170" y="1260" width="40" height="40" as="geometry" />
        </mxCell>
        <mxCell id="ue5pnEDHFhkIbqX5kC11-411" value="" style="rounded=0;whiteSpace=wrap;html=1;fontSize=24;container=0;" vertex="1" parent="1">
          <mxGeometry x="-30" y="1260" width="160" height="40" as="geometry" />
        </mxCell>
        <mxCell id="ue5pnEDHFhkIbqX5kC11-412" style="edgeStyle=orthogonalEdgeStyle;rounded=0;orthogonalLoop=1;jettySize=auto;html=1;exitX=0.5;exitY=1;exitDx=0;exitDy=0;fontSize=24;" edge="1" parent="1" source="ue5pnEDHFhkIbqX5kC11-411" target="ue5pnEDHFhkIbqX5kC11-411">
          <mxGeometry relative="1" as="geometry" />
        </mxCell>
        <mxCell id="ue5pnEDHFhkIbqX5kC11-413" value="" style="rounded=0;whiteSpace=wrap;html=1;fontSize=24;container=0;" vertex="1" parent="1">
          <mxGeometry x="90" y="1260" width="40" height="40" as="geometry" />
        </mxCell>
        <mxCell id="ue5pnEDHFhkIbqX5kC11-414" value="" style="rounded=0;whiteSpace=wrap;html=1;fontSize=24;container=0;" vertex="1" parent="1">
          <mxGeometry x="50" y="1260" width="40" height="40" as="geometry" />
        </mxCell>
        <mxCell id="ue5pnEDHFhkIbqX5kC11-415" value="5" style="rounded=0;whiteSpace=wrap;html=1;fontSize=24;container=0;" vertex="1" parent="1">
          <mxGeometry x="10" y="1260" width="40" height="40" as="geometry" />
        </mxCell>
        <mxCell id="ue5pnEDHFhkIbqX5kC11-416" value="2" style="rounded=0;whiteSpace=wrap;html=1;fontSize=24;container=0;" vertex="1" parent="1">
          <mxGeometry x="-30" y="1260" width="40" height="40" as="geometry" />
        </mxCell>
        <mxCell id="ue5pnEDHFhkIbqX5kC11-417" value="" style="rounded=0;whiteSpace=wrap;html=1;fontSize=24;container=0;" vertex="1" parent="1">
          <mxGeometry x="990" y="1260" width="160" height="40" as="geometry" />
        </mxCell>
        <mxCell id="ue5pnEDHFhkIbqX5kC11-418" style="edgeStyle=orthogonalEdgeStyle;rounded=0;orthogonalLoop=1;jettySize=auto;html=1;exitX=0.5;exitY=1;exitDx=0;exitDy=0;fontSize=24;" edge="1" parent="1" source="ue5pnEDHFhkIbqX5kC11-417" target="ue5pnEDHFhkIbqX5kC11-417">
          <mxGeometry relative="1" as="geometry" />
        </mxCell>
        <mxCell id="ue5pnEDHFhkIbqX5kC11-419" value="" style="rounded=0;whiteSpace=wrap;html=1;fontSize=24;container=0;" vertex="1" parent="1">
          <mxGeometry x="1110" y="1260" width="40" height="40" as="geometry" />
        </mxCell>
        <mxCell id="ue5pnEDHFhkIbqX5kC11-420" value="58" style="rounded=0;whiteSpace=wrap;html=1;fontSize=24;container=0;" vertex="1" parent="1">
          <mxGeometry x="1070" y="1260" width="40" height="40" as="geometry" />
        </mxCell>
        <mxCell id="ue5pnEDHFhkIbqX5kC11-421" value="56" style="rounded=0;whiteSpace=wrap;html=1;fontSize=24;container=0;" vertex="1" parent="1">
          <mxGeometry x="1030" y="1260" width="40" height="40" as="geometry" />
        </mxCell>
        <mxCell id="ue5pnEDHFhkIbqX5kC11-422" value="44" style="rounded=0;whiteSpace=wrap;html=1;fontSize=24;container=0;" vertex="1" parent="1">
          <mxGeometry x="990" y="1260" width="40" height="40" as="geometry" />
        </mxCell>
        <mxCell id="ue5pnEDHFhkIbqX5kC11-423" value="" style="rounded=0;whiteSpace=wrap;html=1;fontSize=24;container=0;" vertex="1" parent="1">
          <mxGeometry x="1195" y="1260" width="160" height="40" as="geometry" />
        </mxCell>
        <mxCell id="ue5pnEDHFhkIbqX5kC11-424" style="edgeStyle=orthogonalEdgeStyle;rounded=0;orthogonalLoop=1;jettySize=auto;html=1;exitX=0.5;exitY=1;exitDx=0;exitDy=0;fontSize=24;" edge="1" parent="1" source="ue5pnEDHFhkIbqX5kC11-423" target="ue5pnEDHFhkIbqX5kC11-423">
          <mxGeometry relative="1" as="geometry" />
        </mxCell>
        <mxCell id="ue5pnEDHFhkIbqX5kC11-425" value="" style="rounded=0;whiteSpace=wrap;html=1;fontSize=24;container=0;" vertex="1" parent="1">
          <mxGeometry x="1315" y="1260" width="40" height="40" as="geometry" />
        </mxCell>
        <mxCell id="ue5pnEDHFhkIbqX5kC11-426" value="" style="rounded=0;whiteSpace=wrap;html=1;fontSize=24;container=0;" vertex="1" parent="1">
          <mxGeometry x="1275" y="1260" width="40" height="40" as="geometry" />
        </mxCell>
        <mxCell id="ue5pnEDHFhkIbqX5kC11-427" value="73" style="rounded=0;whiteSpace=wrap;html=1;fontSize=24;container=0;" vertex="1" parent="1">
          <mxGeometry x="1235" y="1260" width="40" height="40" as="geometry" />
        </mxCell>
        <mxCell id="ue5pnEDHFhkIbqX5kC11-428" value="70" style="rounded=0;whiteSpace=wrap;html=1;fontSize=24;container=0;" vertex="1" parent="1">
          <mxGeometry x="1195" y="1260" width="40" height="40" as="geometry" />
        </mxCell>
      </root>
    </mxGraphModel>
  </diagram>
</mxfile>
